<svg width="127" height="127" viewBox="0 0 127 127" fill="none" xmlns="http://www.w3.org/2000/svg">
<path d="M58.1256 19.1133L53.2042 47.0757C52.9584 48.4724 51.3772 49.1767 50.1745 48.425L45.3986 45.4401C43.9492 44.5342 42.1049 45.7462 42.3613 47.4361L44.178 59.41C44.3339 60.438 43.6762 61.414 42.6648 61.6553L22.7599 66.4054C20.8982 66.8497 20.6639 69.4037 22.4138 70.1793L42.9516 79.2813C43.8247 79.6682 44.3024 80.6184 44.0922 81.55L42.621 88.07C42.2525 89.7033 43.9341 91.0393 45.4418 90.3112L50.5088 87.864C51.6402 87.3176 52.9892 87.9374 53.3116 89.1517L60.2941 115.449C60.8253 117.45 63.6735 117.425 64.169 115.415L70.6151 89.2696C70.9244 88.0151 72.3243 87.3787 73.4729 87.9705L78.6007 90.6121C79.9318 91.2978 81.5166 90.3314 81.5166 88.8341V79.0971C81.5166 78.2894 82.0024 77.561 82.7481 77.2507L104.624 68.1456C106.382 67.4141 106.22 64.873 104.384 64.3702L82.9884 58.5117C82.1193 58.2737 81.5166 57.4838 81.5166 56.5827V44.8774C81.5166 43.2428 79.6622 42.2985 78.3403 43.2599L73.4772 46.7967C72.3698 47.6021 70.7989 47.0816 70.3914 45.7743L62.0047 18.8649C61.3808 16.8631 58.489 17.0483 58.1256 19.1133Z" fill="#F8E4AE"/>
<circle cx="56" cy="60" r="2" fill="#506384"/>
<circle cx="67" cy="60" r="2" fill="#506384"/>
<path d="M53 65C55.9643 67.2639 63.7143 70.4333 71 65" stroke="#506384" stroke-width="3" stroke-linecap="round"/>
</svg>
