<svg width="150" height="149" viewBox="0 0 150 149" fill="none" xmlns="http://www.w3.org/2000/svg">
<path d="M58.0635 14.9373C58.5527 13.8371 58.7115 12.6185 58.5205 11.4297C58.3294 10.2409 57.7969 9.13333 56.9876 8.24183C56.1784 7.35033 55.1273 6.71339 53.9625 6.40856C52.7977 6.10373 51.5694 6.14419 50.4272 6.52499C41.4127 9.52982 34.2235 15.4464 27.6302 22.0396C21.0022 28.6184 15.7417 36.4439 12.1519 45.065C8.56204 53.6862 6.71387 62.9325 6.71387 72.2712C6.71387 81.6099 8.56204 90.8563 12.1519 99.4774C15.7417 108.099 21.0022 115.924 27.6302 122.503C55.6795 150.558 99.0881 148.957 126.815 121.23C133.408 114.637 139.318 107.448 142.323 98.4269C142.692 97.318 142.74 96.1275 142.462 94.9924C142.184 93.8573 141.591 92.8237 140.752 92.0104C139.913 91.1972 138.861 90.6373 137.718 90.3951C136.575 90.153 135.386 90.2385 134.289 90.6417C112.001 98.8491 86.6404 95.1986 69.5178 78.0698C52.3394 60.8914 48.8503 35.6607 58.0635 14.9373Z" fill="#B5D0F3"/>
<path d="M97.6256 8.11331L92.7042 36.0757C92.4584 37.4724 90.8772 38.1767 89.6745 37.425L84.8986 34.4401C83.4492 33.5342 81.6049 34.7462 81.8613 36.4361L83.678 48.41C83.8339 49.438 83.1762 50.414 82.1648 50.6553L62.2599 55.4054C60.3982 55.8497 60.1639 58.4037 61.9138 59.1793L82.4516 68.2813C83.3247 68.6682 83.8024 69.6184 83.5922 70.55L82.121 77.07C81.7525 78.7033 83.4341 80.0393 84.9418 79.3112L90.0088 76.864C91.1402 76.3176 92.4892 76.9374 92.8116 78.1517L99.7941 104.449C100.325 106.45 103.173 106.425 103.669 104.415L110.115 78.2696C110.424 77.0151 111.824 76.3787 112.973 76.9705L118.101 79.6121C119.432 80.2978 121.017 79.3314 121.017 77.8341V68.0971C121.017 67.2894 121.502 66.561 122.248 66.2507L144.124 57.1456C145.882 56.4141 145.72 53.873 143.884 53.3702L122.488 47.5117C121.619 47.2737 121.017 46.4838 121.017 45.5827V33.8774C121.017 32.2428 119.162 31.2985 117.84 32.2599L112.977 35.7967C111.87 36.6021 110.299 36.0816 109.891 34.7743L101.505 7.86488C100.881 5.86312 97.989 6.04832 97.6256 8.11331Z" fill="#DAE1E9"/>
<circle cx="95.5" cy="49" r="2" fill="#506384"/>
<circle cx="106.5" cy="49" r="2" fill="#506384"/>
<path d="M92.5 54C95.4643 56.2639 103.214 59.4333 110.5 54" stroke="#506384" stroke-width="3" stroke-linecap="round"/>
<circle cx="49.9768" cy="93.4768" r="2.47679" fill="#506384"/>
<circle cx="61.9768" cy="93.4768" r="2.47679" fill="#506384"/>
<path d="M42.5 101C47.1111 104.018 59.1667 108.244 70.5 101" stroke="#506384" stroke-width="4" stroke-linecap="round"/>
</svg>
