<svg width="53" height="78" viewBox="0 0 53 78" fill="none" xmlns="http://www.w3.org/2000/svg">
<path d="M22.4167 38.7919V28.5835H30.5834V38.7919C30.5834 39.9148 31.5021 40.8336 32.625 40.8336H38.75C39.8729 40.8336 40.7917 39.9148 40.7917 38.7919V24.5002H44.2625C45.2017 24.5002 45.6509 23.3365 44.9363 22.724L27.8679 7.35021C27.0921 6.65605 25.9079 6.65605 25.1321 7.35021L8.06377 22.724C7.3696 23.3365 7.79835 24.5002 8.73752 24.5002H12.2084V38.7919C12.2084 39.9148 13.1271 40.8336 14.25 40.8336H20.375C21.4979 40.8336 22.4167 39.9148 22.4167 38.7919Z" fill="black"/>
<path d="M8.56641 63.7383H5.40234C5.16797 63.7383 5.01172 63.8086 4.93359 63.9492C4.86328 64.0898 4.82812 64.3984 4.82812 64.875V66.457C4.82812 67.8242 4.86328 68.8047 4.93359 69.3984C5.00391 69.9922 5.12109 70.3398 5.28516 70.4414C5.40234 70.5117 5.59766 70.5938 5.87109 70.6875C6.35547 70.8438 6.59766 71.0352 6.59766 71.2617C6.59766 71.5508 6.37891 71.7617 5.94141 71.8945C5.51172 72.0273 4.80469 72.0938 3.82031 72.0938C2.82812 72.0938 2.11719 72.0312 1.6875 71.9062C1.26562 71.7734 1.05469 71.5586 1.05469 71.2617C1.05469 71.0352 1.27734 70.8477 1.72266 70.6992C2.17578 70.5508 2.43359 70.4336 2.49609 70.3477C2.62109 70.1914 2.70703 69.6211 2.75391 68.6367C2.80859 67.6523 2.83594 65.8516 2.83594 63.2344C2.83594 60.6406 2.80859 58.8555 2.75391 57.8789C2.70703 56.9023 2.62109 56.3359 2.49609 56.1797C2.43359 56.0938 2.17578 55.9766 1.72266 55.8281C1.27734 55.6797 1.05469 55.4961 1.05469 55.2773C1.05469 55.0039 1.20312 54.8086 1.5 54.6914C1.80469 54.5664 2.3125 54.5039 3.02344 54.5039H11.1562C11.5469 54.5039 11.9453 54.4648 12.3516 54.3867C12.7578 54.3086 12.9688 54.2695 12.9844 54.2695C13.3047 54.2695 13.5547 54.5078 13.7344 54.9844C13.9219 55.4531 14.0156 56.1016 14.0156 56.9297C14.0156 57.2422 13.9609 57.4844 13.8516 57.6562C13.7422 57.8281 13.5898 57.9141 13.3945 57.9141C13.1914 57.9141 12.9648 57.6914 12.7148 57.2461C12.6367 57.1133 12.5742 57.0078 12.5273 56.9297C12.293 56.5469 12.0156 56.2852 11.6953 56.1445C11.3828 55.9961 10.9102 55.9219 10.2773 55.9219H7.19531C6.45312 55.9219 5.92969 55.957 5.625 56.0273C5.32812 56.0898 5.14844 56.207 5.08594 56.3789C5 56.6055 4.9375 57.0469 4.89844 57.7031C4.86719 58.3594 4.85156 59.5664 4.85156 61.3242V61.5117C4.85156 61.9258 4.88281 62.1758 4.94531 62.2617C5.00781 62.3398 5.16016 62.3789 5.40234 62.3789H8.56641C9.11328 62.3789 9.49609 62.2969 9.71484 62.1328C9.93359 61.9609 10.0703 61.6445 10.125 61.1836C10.1328 61.1211 10.1445 61.0312 10.1602 60.9141C10.2617 60.1797 10.4844 59.8125 10.8281 59.8125C11.125 59.8125 11.3281 60.0156 11.4375 60.4219C11.5547 60.8203 11.6133 61.7031 11.6133 63.0703C11.6133 64.4453 11.5547 65.3359 11.4375 65.7422C11.3281 66.1406 11.125 66.3398 10.8281 66.3398C10.4844 66.332 10.2617 65.9609 10.1602 65.2266C10.1445 65.1094 10.1328 65.0195 10.125 64.957C10.0703 64.4961 9.92969 64.1797 9.70312 64.0078C9.48438 63.8281 9.10547 63.7383 8.56641 63.7383ZM16.8633 64.4883H22.793C22.9727 64.4883 23.0938 64.457 23.1562 64.3945C23.2188 64.3242 23.25 64.1953 23.25 64.0078C23.25 63.0938 22.9414 62.3359 22.3242 61.7344C21.707 61.125 20.9258 60.8203 19.9805 60.8203C19.4805 60.8203 19.0039 60.9297 18.5508 61.1484C18.1055 61.3672 17.7109 61.6797 17.3672 62.0859C17.0938 62.4141 16.8711 62.7695 16.6992 63.1523C16.5352 63.5352 16.4531 63.8672 16.4531 64.1484C16.4531 64.2734 16.4805 64.3633 16.5352 64.418C16.5977 64.4648 16.707 64.4883 16.8633 64.4883ZM24.2109 65.4961H16.8164C16.6602 65.4961 16.5508 65.5273 16.4883 65.5898C16.4336 65.6523 16.4062 65.7734 16.4062 65.9531C16.4062 67.4141 16.793 68.6133 17.5664 69.5508C18.3398 70.4805 19.3281 70.9453 20.5312 70.9453C21 70.9453 21.4531 70.8672 21.8906 70.7109C22.3359 70.5547 22.7383 70.3281 23.0977 70.0312C23.2852 69.8828 23.543 69.6211 23.8711 69.2461C24.207 68.8711 24.4883 68.6836 24.7148 68.6836C24.8477 68.6836 24.957 68.7266 25.043 68.8125C25.1289 68.8906 25.1719 68.9922 25.1719 69.1172C25.1719 69.2891 25.1172 69.4805 25.0078 69.6914C24.9062 69.8945 24.7578 70.1055 24.5625 70.3242C23.9766 70.9727 23.2969 71.4688 22.5234 71.8125C21.7578 72.1484 20.9336 72.3164 20.0508 72.3164C18.3789 72.3164 16.9922 71.7383 15.8906 70.582C14.7969 69.418 14.25 67.9531 14.25 66.1875C14.25 64.3125 14.8242 62.7617 15.9727 61.5352C17.1211 60.3008 18.5625 59.6836 20.2969 59.6836C21.7969 59.6836 22.9883 60.1055 23.8711 60.9492C24.7539 61.793 25.1953 62.9336 25.1953 64.3711C25.1953 64.8398 25.1445 65.1445 25.043 65.2852C24.9414 65.4258 24.6641 65.4961 24.2109 65.4961ZM29.5898 64.4883H35.5195C35.6992 64.4883 35.8203 64.457 35.8828 64.3945C35.9453 64.3242 35.9766 64.1953 35.9766 64.0078C35.9766 63.0938 35.668 62.3359 35.0508 61.7344C34.4336 61.125 33.6523 60.8203 32.707 60.8203C32.207 60.8203 31.7305 60.9297 31.2773 61.1484C30.832 61.3672 30.4375 61.6797 30.0938 62.0859C29.8203 62.4141 29.5977 62.7695 29.4258 63.1523C29.2617 63.5352 29.1797 63.8672 29.1797 64.1484C29.1797 64.2734 29.207 64.3633 29.2617 64.418C29.3242 64.4648 29.4336 64.4883 29.5898 64.4883ZM36.9375 65.4961H29.543C29.3867 65.4961 29.2773 65.5273 29.2148 65.5898C29.1602 65.6523 29.1328 65.7734 29.1328 65.9531C29.1328 67.4141 29.5195 68.6133 30.293 69.5508C31.0664 70.4805 32.0547 70.9453 33.2578 70.9453C33.7266 70.9453 34.1797 70.8672 34.6172 70.7109C35.0625 70.5547 35.4648 70.3281 35.8242 70.0312C36.0117 69.8828 36.2695 69.6211 36.5977 69.2461C36.9336 68.8711 37.2148 68.6836 37.4414 68.6836C37.5742 68.6836 37.6836 68.7266 37.7695 68.8125C37.8555 68.8906 37.8984 68.9922 37.8984 69.1172C37.8984 69.2891 37.8438 69.4805 37.7344 69.6914C37.6328 69.8945 37.4844 70.1055 37.2891 70.3242C36.7031 70.9727 36.0234 71.4688 35.25 71.8125C34.4844 72.1484 33.6602 72.3164 32.7773 72.3164C31.1055 72.3164 29.7188 71.7383 28.6172 70.582C27.5234 69.418 26.9766 67.9531 26.9766 66.1875C26.9766 64.3125 27.5508 62.7617 28.6992 61.5352C29.8477 60.3008 31.2891 59.6836 33.0234 59.6836C34.5234 59.6836 35.7148 60.1055 36.5977 60.9492C37.4805 61.793 37.9219 62.9336 37.9219 64.3711C37.9219 64.8398 37.8711 65.1445 37.7695 65.2852C37.668 65.4258 37.3906 65.4961 36.9375 65.4961ZM48.9609 57.9844C48.9609 57.3203 48.9219 56.8516 48.8438 56.5781C48.7734 56.3047 48.6523 56.1406 48.4805 56.0859C48.4023 56.0625 48.2656 56.0391 48.0703 56.0156C47.6094 55.9688 47.3789 55.8008 47.3789 55.5117C47.3789 55.3477 47.4492 55.2031 47.5898 55.0781C47.7383 54.9531 47.9805 54.832 48.3164 54.7148C48.7617 54.5508 49.1758 54.4219 49.5586 54.3281C49.9492 54.2344 50.2461 54.1875 50.4492 54.1875C50.668 54.1875 50.8164 54.25 50.8945 54.375C50.9805 54.4922 51.0234 54.7188 51.0234 55.0547C51.0234 55.375 50.9844 56.5156 50.9062 58.4766C50.8281 60.4297 50.7891 62.2266 50.7891 63.8672C50.7891 66.1641 50.8125 67.7656 50.8594 68.6719C50.9062 69.5781 50.9883 70.1211 51.1055 70.3008C51.168 70.4023 51.4062 70.4844 51.8203 70.5469C52.2344 70.6016 52.4414 70.7656 52.4414 71.0391C52.4414 71.3125 52.1094 71.6016 51.4453 71.9062C50.7891 72.2109 50.1641 72.3633 49.5703 72.3633C49.3516 72.3633 49.1992 72.3008 49.1133 72.1758C49.0273 72.0586 48.9844 71.832 48.9844 71.4961V71.1094C48.9844 70.9844 48.9766 70.8984 48.9609 70.8516C48.9453 70.8047 48.9141 70.7812 48.8672 70.7812C48.7578 70.7812 48.5781 70.875 48.3281 71.0625C48.2266 71.1406 48.1523 71.1953 48.1055 71.2266C47.5977 71.5859 47.1016 71.8398 46.6172 71.9883C46.1328 72.1367 45.5781 72.2109 44.9531 72.2109C43.3906 72.2109 42.1133 71.6602 41.1211 70.5586C40.1289 69.457 39.6328 68.0156 39.6328 66.2344C39.6328 64.375 40.1914 62.8281 41.3086 61.5938C42.4336 60.3516 43.8242 59.7305 45.4805 59.7305C46.5273 59.7305 47.5234 59.9883 48.4688 60.5039C48.6094 60.582 48.6953 60.6211 48.7266 60.6211C48.7969 60.6211 48.8516 60.5625 48.8906 60.4453C48.9375 60.3203 48.9609 60.1484 48.9609 59.9297V57.9844ZM48.9609 64.0547C48.9609 63.0312 48.6914 62.2539 48.1523 61.7227C47.6133 61.1836 46.8281 60.9141 45.7969 60.9141C44.6094 60.9141 43.6484 61.3906 42.9141 62.3438C42.1797 63.2891 41.8125 64.5391 41.8125 66.0938C41.8125 67.5234 42.1523 68.6758 42.832 69.5508C43.5117 70.418 44.4023 70.8516 45.5039 70.8516C46.0117 70.8516 46.5273 70.75 47.0508 70.5469C47.5742 70.3438 48.0273 70.0664 48.4102 69.7148C48.6133 69.543 48.7539 69.3555 48.832 69.1523C48.918 68.9414 48.9609 68.6094 48.9609 68.1562V67.8281V64.0547Z" fill="black"/>
</svg>
