<svg width="142" height="76" viewBox="0 0 142 76" fill="none" xmlns="http://www.w3.org/2000/svg">
<path d="M61.625 20.75V13.625H57.875V15.5C57.875 16.6875 58.2188 17.7581 58.9063 18.7119C59.5938 19.6656 60.5 20.345 61.625 20.75ZM80.375 20.75C81.5 20.3438 82.4063 19.6638 83.0938 18.71C83.7813 17.7563 84.125 16.6863 84.125 15.5V13.625H80.375V20.75ZM69.125 36.125V30.3125C67.5938 29.9688 66.2269 29.3206 65.0244 28.3681C63.8219 27.4156 62.9388 26.22 62.375 24.7813C60.0313 24.5 58.0706 23.4769 56.4931 21.7119C54.9156 19.9469 54.1262 17.8763 54.125 15.5V13.625C54.125 12.5938 54.4925 11.7113 55.2275 10.9775C55.9625 10.2437 56.845 9.87625 57.875 9.875H61.625C61.625 8.84375 61.9925 7.96125 62.7275 7.2275C63.4625 6.49375 64.345 6.12625 65.375 6.125H76.625C77.6563 6.125 78.5394 6.4925 79.2744 7.2275C80.0094 7.9625 80.3762 8.845 80.375 9.875H84.125C85.1563 9.875 86.0394 10.2425 86.7744 10.9775C87.5094 11.7125 87.8762 12.595 87.875 13.625V15.5C87.875 17.875 87.0856 19.9456 85.5069 21.7119C83.9281 23.4781 81.9675 24.5013 79.625 24.7813C79.0625 26.2188 78.18 27.4144 76.9775 28.3681C75.775 29.3219 74.4075 29.97 72.875 30.3125V36.125H78.5C79.0312 36.125 79.4769 36.305 79.8369 36.665C80.1969 37.025 80.3762 37.47 80.375 38C80.3738 38.53 80.1937 38.9756 79.835 39.3369C79.4762 39.6981 79.0312 39.8775 78.5 39.875H63.5C62.9688 39.875 62.5238 39.695 62.165 39.335C61.8063 38.975 61.6262 38.53 61.625 38C61.6238 37.47 61.8038 37.025 62.165 36.665C62.5263 36.305 62.9712 36.125 63.5 36.125H69.125Z" fill="black"/>
<path d="M8.76562 68.1055C9.61719 68.1055 10.2617 67.9961 10.6992 67.7773C11.1367 67.5586 11.5117 67.168 11.8242 66.6055C11.9492 66.3867 12.082 66.082 12.2227 65.6914C12.418 65.1445 12.6406 64.8711 12.8906 64.8711C13.0703 64.8711 13.2148 64.9727 13.3242 65.1758C13.4336 65.3711 13.4883 65.6445 13.4883 65.9961C13.4883 66.9414 13.3281 67.8125 13.0078 68.6094C12.6875 69.3984 12.3594 69.793 12.0234 69.793C11.9844 69.793 11.8867 69.7695 11.7305 69.7227C11.1992 69.5742 10.6641 69.5 10.125 69.5H3.02344C2.30469 69.5 1.79688 69.4453 1.5 69.3359C1.20312 69.2188 1.05469 69.0273 1.05469 68.7617C1.05469 68.5352 1.28125 68.3477 1.73438 68.1992C2.19531 68.0508 2.45703 67.9336 2.51953 67.8477C2.64453 67.6914 2.73047 67.1211 2.77734 66.1367C2.83203 65.1523 2.85938 63.3516 2.85938 60.7344C2.85938 58.1406 2.83203 56.3555 2.77734 55.3789C2.73047 54.4023 2.64453 53.8359 2.51953 53.6797C2.45703 53.5938 2.19531 53.4766 1.73438 53.3281C1.28125 53.1797 1.05469 52.9961 1.05469 52.7773C1.05469 52.4727 1.27344 52.2539 1.71094 52.1211C2.15625 51.9805 2.86719 51.9102 3.84375 51.9102C4.8125 51.9102 5.51562 51.9805 5.95312 52.1211C6.39844 52.2539 6.62109 52.4727 6.62109 52.7773C6.62109 52.9961 6.39453 53.1797 5.94141 53.3281C5.48828 53.4766 5.22656 53.5977 5.15625 53.6914C5.03125 53.8555 4.94141 54.4961 4.88672 55.6133C4.83203 56.7305 4.80469 58.4375 4.80469 60.7344C4.80469 63.0078 4.82812 64.6211 4.875 65.5742C4.92188 66.5195 5 67.125 5.10938 67.3906C5.21875 67.6484 5.47656 67.832 5.88281 67.9414C6.28906 68.0508 6.94531 68.1055 7.85156 68.1055H8.76562ZM17.707 61.9883H23.6367C23.8164 61.9883 23.9375 61.957 24 61.8945C24.0625 61.8242 24.0938 61.6953 24.0938 61.5078C24.0938 60.5938 23.7852 59.8359 23.168 59.2344C22.5508 58.625 21.7695 58.3203 20.8242 58.3203C20.3242 58.3203 19.8477 58.4297 19.3945 58.6484C18.9492 58.8672 18.5547 59.1797 18.2109 59.5859C17.9375 59.9141 17.7148 60.2695 17.543 60.6523C17.3789 61.0352 17.2969 61.3672 17.2969 61.6484C17.2969 61.7734 17.3242 61.8633 17.3789 61.918C17.4414 61.9648 17.5508 61.9883 17.707 61.9883ZM25.0547 62.9961H17.6602C17.5039 62.9961 17.3945 63.0273 17.332 63.0898C17.2773 63.1523 17.25 63.2734 17.25 63.4531C17.25 64.9141 17.6367 66.1133 18.4102 67.0508C19.1836 67.9805 20.1719 68.4453 21.375 68.4453C21.8438 68.4453 22.2969 68.3672 22.7344 68.2109C23.1797 68.0547 23.582 67.8281 23.9414 67.5312C24.1289 67.3828 24.3867 67.1211 24.7148 66.7461C25.0508 66.3711 25.332 66.1836 25.5586 66.1836C25.6914 66.1836 25.8008 66.2266 25.8867 66.3125C25.9727 66.3906 26.0156 66.4922 26.0156 66.6172C26.0156 66.7891 25.9609 66.9805 25.8516 67.1914C25.75 67.3945 25.6016 67.6055 25.4062 67.8242C24.8203 68.4727 24.1406 68.9688 23.3672 69.3125C22.6016 69.6484 21.7773 69.8164 20.8945 69.8164C19.2227 69.8164 17.8359 69.2383 16.7344 68.082C15.6406 66.918 15.0938 65.4531 15.0938 63.6875C15.0938 61.8125 15.668 60.2617 16.8164 59.0352C17.9648 57.8008 19.4062 57.1836 21.1406 57.1836C22.6406 57.1836 23.832 57.6055 24.7148 58.4492C25.5977 59.293 26.0391 60.4336 26.0391 61.8711C26.0391 62.3398 25.9883 62.6445 25.8867 62.7852C25.7852 62.9258 25.5078 62.9961 25.0547 62.9961ZM35.5898 62.375C35.5977 62.2812 35.6016 62.1836 35.6016 62.082C35.6094 61.9805 35.6133 61.8281 35.6133 61.625C35.6133 60.4297 35.4258 59.5742 35.0508 59.0586C34.6758 58.5352 34.0664 58.2734 33.2227 58.2734C32.793 58.2734 32.4062 58.3555 32.0625 58.5195C31.7188 58.6836 31.3984 58.9375 31.1016 59.2812C31.0391 59.3594 30.9453 59.4805 30.8203 59.6445C30.4297 60.1992 30.0352 60.4766 29.6367 60.4766C29.3945 60.4766 29.1992 60.4023 29.0508 60.2539C28.9023 60.1055 28.8281 59.9062 28.8281 59.6562C28.8281 59.0781 29.2734 58.5352 30.1641 58.0273C31.0625 57.5195 32.0898 57.2656 33.2461 57.2656C34.6914 57.2656 35.7578 57.625 36.4453 58.3438C37.1406 59.0625 37.4883 60.1797 37.4883 61.6953C37.4883 62.1328 37.4805 62.7148 37.4648 63.4414C37.4492 64.168 37.4414 64.6758 37.4414 64.9648C37.4414 66.3867 37.4766 67.293 37.5469 67.6836C37.625 68.0664 37.7578 68.2578 37.9453 68.2578C38.0234 68.2578 38.1211 68.2461 38.2383 68.2227C38.3633 68.1914 38.4414 68.1758 38.4727 68.1758C38.582 68.1758 38.6641 68.2109 38.7188 68.2812C38.7812 68.3438 38.8125 68.4297 38.8125 68.5391C38.8125 68.8125 38.6328 69.0898 38.2734 69.3711C37.9141 69.6523 37.5391 69.793 37.1484 69.793C36.6875 69.793 36.1836 69.293 35.6367 68.293C35.5898 68.207 35.5508 68.1367 35.5195 68.082H35.3555C34.8164 68.6211 34.2461 69.0195 33.6445 69.2773C33.043 69.5352 32.3789 69.6641 31.6523 69.6641C30.4961 69.6641 29.5703 69.3516 28.875 68.7266C28.1875 68.1016 27.8438 67.2617 27.8438 66.207C27.8438 64.957 28.3008 63.9805 29.2148 63.2773C30.1367 62.5742 31.4219 62.2227 33.0703 62.2227C33.4844 62.2227 33.8984 62.2383 34.3125 62.2695C34.7344 62.293 35.1602 62.3281 35.5898 62.375ZM35.5898 63.4062C35.1758 63.3359 34.793 63.2852 34.4414 63.2539C34.0977 63.2227 33.7773 63.207 33.4805 63.207C32.293 63.207 31.3906 63.4492 30.7734 63.9336C30.1641 64.418 29.8594 65.1211 29.8594 66.043C29.8594 66.8086 30.0742 67.4102 30.5039 67.8477C30.9414 68.2773 31.543 68.4922 32.3086 68.4922C33.2852 68.4922 34.0742 68.1914 34.6758 67.5898C35.2852 66.9805 35.5898 66.1758 35.5898 65.1758V63.4062ZM49.6641 55.4844C49.6641 54.8203 49.625 54.3516 49.5469 54.0781C49.4766 53.8047 49.3555 53.6406 49.1836 53.5859C49.1055 53.5625 48.9688 53.5391 48.7734 53.5156C48.3125 53.4688 48.082 53.3008 48.082 53.0117C48.082 52.8477 48.1523 52.7031 48.293 52.5781C48.4414 52.4531 48.6836 52.332 49.0195 52.2148C49.4648 52.0508 49.8789 51.9219 50.2617 51.8281C50.6523 51.7344 50.9492 51.6875 51.1523 51.6875C51.3711 51.6875 51.5195 51.75 51.5977 51.875C51.6836 51.9922 51.7266 52.2188 51.7266 52.5547C51.7266 52.875 51.6875 54.0156 51.6094 55.9766C51.5312 57.9297 51.4922 59.7266 51.4922 61.3672C51.4922 63.6641 51.5156 65.2656 51.5625 66.1719C51.6094 67.0781 51.6914 67.6211 51.8086 67.8008C51.8711 67.9023 52.1094 67.9844 52.5234 68.0469C52.9375 68.1016 53.1445 68.2656 53.1445 68.5391C53.1445 68.8125 52.8125 69.1016 52.1484 69.4062C51.4922 69.7109 50.8672 69.8633 50.2734 69.8633C50.0547 69.8633 49.9023 69.8008 49.8164 69.6758C49.7305 69.5586 49.6875 69.332 49.6875 68.9961V68.6094C49.6875 68.4844 49.6797 68.3984 49.6641 68.3516C49.6484 68.3047 49.6172 68.2812 49.5703 68.2812C49.4609 68.2812 49.2812 68.375 49.0312 68.5625C48.9297 68.6406 48.8555 68.6953 48.8086 68.7266C48.3008 69.0859 47.8047 69.3398 47.3203 69.4883C46.8359 69.6367 46.2812 69.7109 45.6562 69.7109C44.0938 69.7109 42.8164 69.1602 41.8242 68.0586C40.832 66.957 40.3359 65.5156 40.3359 63.7344C40.3359 61.875 40.8945 60.3281 42.0117 59.0938C43.1367 57.8516 44.5273 57.2305 46.1836 57.2305C47.2305 57.2305 48.2266 57.4883 49.1719 58.0039C49.3125 58.082 49.3984 58.1211 49.4297 58.1211C49.5 58.1211 49.5547 58.0625 49.5938 57.9453C49.6406 57.8203 49.6641 57.6484 49.6641 57.4297V55.4844ZM49.6641 61.5547C49.6641 60.5312 49.3945 59.7539 48.8555 59.2227C48.3164 58.6836 47.5312 58.4141 46.5 58.4141C45.3125 58.4141 44.3516 58.8906 43.6172 59.8438C42.8828 60.7891 42.5156 62.0391 42.5156 63.5938C42.5156 65.0234 42.8555 66.1758 43.5352 67.0508C44.2148 67.918 45.1055 68.3516 46.207 68.3516C46.7148 68.3516 47.2305 68.25 47.7539 68.0469C48.2773 67.8438 48.7305 67.5664 49.1133 67.2148C49.3164 67.043 49.457 66.8555 49.5352 66.6523C49.6211 66.4414 49.6641 66.1094 49.6641 65.6562V65.3281V61.5547ZM57.0352 61.9883H62.9648C63.1445 61.9883 63.2656 61.957 63.3281 61.8945C63.3906 61.8242 63.4219 61.6953 63.4219 61.5078C63.4219 60.5938 63.1133 59.8359 62.4961 59.2344C61.8789 58.625 61.0977 58.3203 60.1523 58.3203C59.6523 58.3203 59.1758 58.4297 58.7227 58.6484C58.2773 58.8672 57.8828 59.1797 57.5391 59.5859C57.2656 59.9141 57.043 60.2695 56.8711 60.6523C56.707 61.0352 56.625 61.3672 56.625 61.6484C56.625 61.7734 56.6523 61.8633 56.707 61.918C56.7695 61.9648 56.8789 61.9883 57.0352 61.9883ZM64.3828 62.9961H56.9883C56.832 62.9961 56.7227 63.0273 56.6602 63.0898C56.6055 63.1523 56.5781 63.2734 56.5781 63.4531C56.5781 64.9141 56.9648 66.1133 57.7383 67.0508C58.5117 67.9805 59.5 68.4453 60.7031 68.4453C61.1719 68.4453 61.625 68.3672 62.0625 68.2109C62.5078 68.0547 62.9102 67.8281 63.2695 67.5312C63.457 67.3828 63.7148 67.1211 64.043 66.7461C64.3789 66.3711 64.6602 66.1836 64.8867 66.1836C65.0195 66.1836 65.1289 66.2266 65.2148 66.3125C65.3008 66.3906 65.3438 66.4922 65.3438 66.6172C65.3438 66.7891 65.2891 66.9805 65.1797 67.1914C65.0781 67.3945 64.9297 67.6055 64.7344 67.8242C64.1484 68.4727 63.4688 68.9688 62.6953 69.3125C61.9297 69.6484 61.1055 69.8164 60.2227 69.8164C58.5508 69.8164 57.1641 69.2383 56.0625 68.082C54.9688 66.918 54.4219 65.4531 54.4219 63.6875C54.4219 61.8125 54.9961 60.2617 56.1445 59.0352C57.293 57.8008 58.7344 57.1836 60.4688 57.1836C61.9688 57.1836 63.1602 57.6055 64.043 58.4492C64.9258 59.293 65.3672 60.4336 65.3672 61.8711C65.3672 62.3398 65.3164 62.6445 65.2148 62.7852C65.1133 62.9258 64.8359 62.9961 64.3828 62.9961ZM70.5 59.5156C71 58.75 71.5273 58.1641 72.082 57.7578C72.6445 57.3438 73.1914 57.1367 73.7227 57.1367C74.1602 57.1367 74.5117 57.2734 74.7773 57.5469C75.0508 57.8203 75.1875 58.1797 75.1875 58.625C75.1875 59.0156 75.0625 59.3398 74.8125 59.5977C74.5703 59.8477 74.2617 59.9727 73.8867 59.9727C73.5508 59.9727 73.2734 59.8672 73.0547 59.6562C72.8359 59.4453 72.6992 59.1523 72.6445 58.7773C71.8164 59.043 71.2383 59.4648 70.9102 60.043C70.5898 60.6133 70.4297 61.8555 70.4297 63.7695C70.4297 65.207 70.4492 66.2461 70.4883 66.8867C70.5273 67.5195 70.5898 67.8945 70.6758 68.0117C70.793 68.1914 71.0664 68.3125 71.4961 68.375C71.6367 68.3906 71.75 68.4062 71.8359 68.4219C72.0078 68.4531 72.1445 68.5078 72.2461 68.5859C72.3477 68.6641 72.3984 68.7617 72.3984 68.8789C72.3984 69.1289 72.1758 69.3125 71.7305 69.4297C71.2852 69.5391 70.5898 69.5938 69.6445 69.5938C68.8008 69.5938 68.1914 69.5391 67.8164 69.4297C67.4492 69.3125 67.2656 69.1289 67.2656 68.8789C67.2656 68.6758 67.4297 68.5234 67.7578 68.4219C68.0859 68.3203 68.2891 68.2305 68.3672 68.1523C68.4922 68.043 68.5781 67.7891 68.625 67.3906C68.6797 66.9922 68.707 66.2969 68.707 65.3047C68.707 63.9609 68.6875 62.8477 68.6484 61.9648C68.6172 61.0742 68.5625 60.4141 68.4844 59.9844C68.4375 59.6562 68.3594 59.4336 68.25 59.3164C68.1406 59.1914 67.9023 59.1289 67.5352 59.1289H67.3125C67.1875 59.1289 67.0742 59.082 66.9727 58.9883C66.8789 58.8945 66.832 58.7812 66.832 58.6484C66.832 58.5 66.8906 58.3672 67.0078 58.25C67.125 58.125 67.3398 57.9883 67.6523 57.8398C68.0508 57.6289 68.4336 57.4609 68.8008 57.3359C69.168 57.2031 69.4258 57.1367 69.5742 57.1367C69.7852 57.1367 69.9492 57.3086 70.0664 57.6523C70.1836 57.9883 70.2812 58.5859 70.3594 59.4453L70.5 59.5156ZM82.2891 58.3906C81.6797 58.3906 81.1094 58.5391 80.5781 58.8359C80.0469 59.125 79.6172 59.5273 79.2891 60.043C79.1641 60.2383 79.0742 60.5156 79.0195 60.875C78.9727 61.2266 78.9492 61.9336 78.9492 62.9961C78.9492 64.0195 78.9648 64.8672 78.9961 65.5391C79.0273 66.2031 79.0703 66.6367 79.125 66.8398C79.2578 67.3867 79.6016 67.8477 80.1562 68.2227C80.7109 68.5977 81.3438 68.7852 82.0547 68.7852C83.2344 68.7852 84.1875 68.3008 84.9141 67.332C85.6406 66.3633 86.0039 65.0859 86.0039 63.5C86.0039 61.9688 85.6602 60.7344 84.9727 59.7969C84.2852 58.8594 83.3906 58.3906 82.2891 58.3906ZM78.9258 58.8008H79.1016C79.6328 58.2305 80.1914 57.8164 80.7773 57.5586C81.3711 57.293 82.043 57.1602 82.793 57.1602C84.3789 57.1602 85.6719 57.7109 86.6719 58.8125C87.6719 59.9141 88.1719 61.3477 88.1719 63.1133C88.1719 64.0977 87.9688 65.0352 87.5625 65.9258C87.1641 66.8164 86.5898 67.6094 85.8398 68.3047C85.293 68.8125 84.668 69.1992 83.9648 69.4648C83.2695 69.7305 82.5195 69.8633 81.7148 69.8633C81.0664 69.8633 80.4531 69.7656 79.875 69.5703C79.2969 69.3828 78.7422 69.0938 78.2109 68.7031C77.9688 68.8438 77.75 68.9492 77.5547 69.0195C77.3672 69.082 77.1953 69.1133 77.0391 69.1133C76.8984 69.1133 76.7734 69.0938 76.6641 69.0547C76.5547 69.0078 76.4531 68.9414 76.3594 68.8555C76.6562 68.582 76.8633 68.1367 76.9805 67.5195C77.0977 66.9023 77.1562 65.7383 77.1562 64.0273C77.1562 60.1914 77.1289 57.5742 77.0742 56.1758C77.0195 54.7695 76.9258 53.9648 76.793 53.7617C76.7148 53.6445 76.4688 53.5586 76.0547 53.5039C75.6484 53.4492 75.4453 53.2852 75.4453 53.0117C75.4453 52.8633 75.5156 52.7266 75.6562 52.6016C75.7969 52.4766 76.0234 52.3477 76.3359 52.2148C76.7422 52.0586 77.1484 51.9336 77.5547 51.8398C77.9609 51.7383 78.25 51.6875 78.4219 51.6875C78.6562 51.6875 78.8125 51.7461 78.8906 51.8633C78.9766 51.9805 79.0195 52.2109 79.0195 52.5547C79.0195 52.625 79.0156 52.832 79.0078 53.1758C78.9531 55.0508 78.9258 56.9258 78.9258 58.8008ZM91.9922 62.9961C91.9922 64.6523 92.3867 66.0234 93.1758 67.1094C93.9648 68.1875 94.9453 68.7266 96.1172 68.7266C97.3125 68.7266 98.25 68.2969 98.9297 67.4375C99.6172 66.5781 99.9609 65.3867 99.9609 63.8633C99.9609 62.2773 99.5508 60.957 98.7305 59.9023C97.9102 58.8477 96.8867 58.3203 95.6602 58.3203C94.582 58.3203 93.6992 58.75 93.0117 59.6094C92.332 60.4688 91.9922 61.5977 91.9922 62.9961ZM89.8828 63.6875C89.8828 61.8281 90.4844 60.2812 91.6875 59.0469C92.8984 57.8047 94.4062 57.1836 96.2109 57.1836C97.9297 57.1836 99.3438 57.7539 100.453 58.8945C101.562 60.0273 102.117 61.4727 102.117 63.2305C102.117 65.1133 101.52 66.6836 100.324 67.9414C99.1289 69.1914 97.6484 69.8164 95.8828 69.8164C94.1797 69.8164 92.7539 69.2305 91.6055 68.0586C90.457 66.8789 89.8828 65.4219 89.8828 63.6875ZM111.598 62.375C111.605 62.2812 111.609 62.1836 111.609 62.082C111.617 61.9805 111.621 61.8281 111.621 61.625C111.621 60.4297 111.434 59.5742 111.059 59.0586C110.684 58.5352 110.074 58.2734 109.23 58.2734C108.801 58.2734 108.414 58.3555 108.07 58.5195C107.727 58.6836 107.406 58.9375 107.109 59.2812C107.047 59.3594 106.953 59.4805 106.828 59.6445C106.438 60.1992 106.043 60.4766 105.645 60.4766C105.402 60.4766 105.207 60.4023 105.059 60.2539C104.91 60.1055 104.836 59.9062 104.836 59.6562C104.836 59.0781 105.281 58.5352 106.172 58.0273C107.07 57.5195 108.098 57.2656 109.254 57.2656C110.699 57.2656 111.766 57.625 112.453 58.3438C113.148 59.0625 113.496 60.1797 113.496 61.6953C113.496 62.1328 113.488 62.7148 113.473 63.4414C113.457 64.168 113.449 64.6758 113.449 64.9648C113.449 66.3867 113.484 67.293 113.555 67.6836C113.633 68.0664 113.766 68.2578 113.953 68.2578C114.031 68.2578 114.129 68.2461 114.246 68.2227C114.371 68.1914 114.449 68.1758 114.48 68.1758C114.59 68.1758 114.672 68.2109 114.727 68.2812C114.789 68.3438 114.82 68.4297 114.82 68.5391C114.82 68.8125 114.641 69.0898 114.281 69.3711C113.922 69.6523 113.547 69.793 113.156 69.793C112.695 69.793 112.191 69.293 111.645 68.293C111.598 68.207 111.559 68.1367 111.527 68.082H111.363C110.824 68.6211 110.254 69.0195 109.652 69.2773C109.051 69.5352 108.387 69.6641 107.66 69.6641C106.504 69.6641 105.578 69.3516 104.883 68.7266C104.195 68.1016 103.852 67.2617 103.852 66.207C103.852 64.957 104.309 63.9805 105.223 63.2773C106.145 62.5742 107.43 62.2227 109.078 62.2227C109.492 62.2227 109.906 62.2383 110.32 62.2695C110.742 62.293 111.168 62.3281 111.598 62.375ZM111.598 63.4062C111.184 63.3359 110.801 63.2852 110.449 63.2539C110.105 63.2227 109.785 63.207 109.488 63.207C108.301 63.207 107.398 63.4492 106.781 63.9336C106.172 64.418 105.867 65.1211 105.867 66.043C105.867 66.8086 106.082 67.4102 106.512 67.8477C106.949 68.2773 107.551 68.4922 108.316 68.4922C109.293 68.4922 110.082 68.1914 110.684 67.5898C111.293 66.9805 111.598 66.1758 111.598 65.1758V63.4062ZM119.766 59.5156C120.266 58.75 120.793 58.1641 121.348 57.7578C121.91 57.3438 122.457 57.1367 122.988 57.1367C123.426 57.1367 123.777 57.2734 124.043 57.5469C124.316 57.8203 124.453 58.1797 124.453 58.625C124.453 59.0156 124.328 59.3398 124.078 59.5977C123.836 59.8477 123.527 59.9727 123.152 59.9727C122.816 59.9727 122.539 59.8672 122.32 59.6562C122.102 59.4453 121.965 59.1523 121.91 58.7773C121.082 59.043 120.504 59.4648 120.176 60.043C119.855 60.6133 119.695 61.8555 119.695 63.7695C119.695 65.207 119.715 66.2461 119.754 66.8867C119.793 67.5195 119.855 67.8945 119.941 68.0117C120.059 68.1914 120.332 68.3125 120.762 68.375C120.902 68.3906 121.016 68.4062 121.102 68.4219C121.273 68.4531 121.41 68.5078 121.512 68.5859C121.613 68.6641 121.664 68.7617 121.664 68.8789C121.664 69.1289 121.441 69.3125 120.996 69.4297C120.551 69.5391 119.855 69.5938 118.91 69.5938C118.066 69.5938 117.457 69.5391 117.082 69.4297C116.715 69.3125 116.531 69.1289 116.531 68.8789C116.531 68.6758 116.695 68.5234 117.023 68.4219C117.352 68.3203 117.555 68.2305 117.633 68.1523C117.758 68.043 117.844 67.7891 117.891 67.3906C117.945 66.9922 117.973 66.2969 117.973 65.3047C117.973 63.9609 117.953 62.8477 117.914 61.9648C117.883 61.0742 117.828 60.4141 117.75 59.9844C117.703 59.6562 117.625 59.4336 117.516 59.3164C117.406 59.1914 117.168 59.1289 116.801 59.1289H116.578C116.453 59.1289 116.34 59.082 116.238 58.9883C116.145 58.8945 116.098 58.7812 116.098 58.6484C116.098 58.5 116.156 58.3672 116.273 58.25C116.391 58.125 116.605 57.9883 116.918 57.8398C117.316 57.6289 117.699 57.4609 118.066 57.3359C118.434 57.2031 118.691 57.1367 118.84 57.1367C119.051 57.1367 119.215 57.3086 119.332 57.6523C119.449 57.9883 119.547 58.5859 119.625 59.4453L119.766 59.5156ZM134.273 55.4844C134.273 54.8203 134.234 54.3516 134.156 54.0781C134.086 53.8047 133.965 53.6406 133.793 53.5859C133.715 53.5625 133.578 53.5391 133.383 53.5156C132.922 53.4688 132.691 53.3008 132.691 53.0117C132.691 52.8477 132.762 52.7031 132.902 52.5781C133.051 52.4531 133.293 52.332 133.629 52.2148C134.074 52.0508 134.488 51.9219 134.871 51.8281C135.262 51.7344 135.559 51.6875 135.762 51.6875C135.98 51.6875 136.129 51.75 136.207 51.875C136.293 51.9922 136.336 52.2188 136.336 52.5547C136.336 52.875 136.297 54.0156 136.219 55.9766C136.141 57.9297 136.102 59.7266 136.102 61.3672C136.102 63.6641 136.125 65.2656 136.172 66.1719C136.219 67.0781 136.301 67.6211 136.418 67.8008C136.48 67.9023 136.719 67.9844 137.133 68.0469C137.547 68.1016 137.754 68.2656 137.754 68.5391C137.754 68.8125 137.422 69.1016 136.758 69.4062C136.102 69.7109 135.477 69.8633 134.883 69.8633C134.664 69.8633 134.512 69.8008 134.426 69.6758C134.34 69.5586 134.297 69.332 134.297 68.9961V68.6094C134.297 68.4844 134.289 68.3984 134.273 68.3516C134.258 68.3047 134.227 68.2812 134.18 68.2812C134.07 68.2812 133.891 68.375 133.641 68.5625C133.539 68.6406 133.465 68.6953 133.418 68.7266C132.91 69.0859 132.414 69.3398 131.93 69.4883C131.445 69.6367 130.891 69.7109 130.266 69.7109C128.703 69.7109 127.426 69.1602 126.434 68.0586C125.441 66.957 124.945 65.5156 124.945 63.7344C124.945 61.875 125.504 60.3281 126.621 59.0938C127.746 57.8516 129.137 57.2305 130.793 57.2305C131.84 57.2305 132.836 57.4883 133.781 58.0039C133.922 58.082 134.008 58.1211 134.039 58.1211C134.109 58.1211 134.164 58.0625 134.203 57.9453C134.25 57.8203 134.273 57.6484 134.273 57.4297V55.4844ZM134.273 61.5547C134.273 60.5312 134.004 59.7539 133.465 59.2227C132.926 58.6836 132.141 58.4141 131.109 58.4141C129.922 58.4141 128.961 58.8906 128.227 59.8438C127.492 60.7891 127.125 62.0391 127.125 63.5938C127.125 65.0234 127.465 66.1758 128.145 67.0508C128.824 67.918 129.715 68.3516 130.816 68.3516C131.324 68.3516 131.84 68.25 132.363 68.0469C132.887 67.8438 133.34 67.5664 133.723 67.2148C133.926 67.043 134.066 66.8555 134.145 66.6523C134.23 66.4414 134.273 66.1094 134.273 65.6562V65.3281V61.5547Z" fill="black"/>
</svg>
