<svg width="96" height="78" viewBox="0 0 96 78" fill="none" xmlns="http://www.w3.org/2000/svg">
<path d="M48.3333 6H34.0417C32.9188 6 32 6.91875 32 8.04167V36.625C32 37.7479 32.9188 38.6667 34.0417 38.6667H48.3333" stroke="#6696D4" stroke-width="4.08333" stroke-linecap="round" stroke-linejoin="round"/>
<path d="M42.2083 22.3335H65.6874" stroke="#6696D4" stroke-width="4.08333" stroke-linecap="round" stroke-linejoin="round"/>
<path d="M58.5417 15.1875L65.6876 22.3333L58.5417 29.4792" stroke="#6696D4" stroke-width="4.08333" stroke-linecap="round" stroke-linejoin="round"/>
<path d="M13.0781 70.6055C13.9297 70.6055 14.5742 70.4961 15.0117 70.2773C15.4492 70.0586 15.8242 69.668 16.1367 69.1055C16.2617 68.8867 16.3945 68.582 16.5352 68.1914C16.7305 67.6445 16.9531 67.3711 17.2031 67.3711C17.3828 67.3711 17.5273 67.4727 17.6367 67.6758C17.7461 67.8711 17.8008 68.1445 17.8008 68.4961C17.8008 69.4414 17.6406 70.3125 17.3203 71.1094C17 71.8984 16.6719 72.293 16.3359 72.293C16.2969 72.293 16.1992 72.2695 16.043 72.2227C15.5117 72.0742 14.9766 72 14.4375 72H7.33594C6.61719 72 6.10938 71.9453 5.8125 71.8359C5.51562 71.7188 5.36719 71.5273 5.36719 71.2617C5.36719 71.0352 5.59375 70.8477 6.04688 70.6992C6.50781 70.5508 6.76953 70.4336 6.83203 70.3477C6.95703 70.1914 7.04297 69.6211 7.08984 68.6367C7.14453 67.6523 7.17188 65.8516 7.17188 63.2344C7.17188 60.6406 7.14453 58.8555 7.08984 57.8789C7.04297 56.9023 6.95703 56.3359 6.83203 56.1797C6.76953 56.0938 6.50781 55.9766 6.04688 55.8281C5.59375 55.6797 5.36719 55.4961 5.36719 55.2773C5.36719 54.9727 5.58594 54.7539 6.02344 54.6211C6.46875 54.4805 7.17969 54.4102 8.15625 54.4102C9.125 54.4102 9.82812 54.4805 10.2656 54.6211C10.7109 54.7539 10.9336 54.9727 10.9336 55.2773C10.9336 55.4961 10.707 55.6797 10.2539 55.8281C9.80078 55.9766 9.53906 56.0977 9.46875 56.1914C9.34375 56.3555 9.25391 56.9961 9.19922 58.1133C9.14453 59.2305 9.11719 60.9375 9.11719 63.2344C9.11719 65.5078 9.14062 67.1211 9.1875 68.0742C9.23438 69.0195 9.3125 69.625 9.42188 69.8906C9.53125 70.1484 9.78906 70.332 10.1953 70.4414C10.6016 70.5508 11.2578 70.6055 12.1641 70.6055H13.0781ZM21.4453 65.4961C21.4453 67.1523 21.8398 68.5234 22.6289 69.6094C23.418 70.6875 24.3984 71.2266 25.5703 71.2266C26.7656 71.2266 27.7031 70.7969 28.3828 69.9375C29.0703 69.0781 29.4141 67.8867 29.4141 66.3633C29.4141 64.7773 29.0039 63.457 28.1836 62.4023C27.3633 61.3477 26.3398 60.8203 25.1133 60.8203C24.0352 60.8203 23.1523 61.25 22.4648 62.1094C21.7852 62.9688 21.4453 64.0977 21.4453 65.4961ZM19.3359 66.1875C19.3359 64.3281 19.9375 62.7812 21.1406 61.5469C22.3516 60.3047 23.8594 59.6836 25.6641 59.6836C27.3828 59.6836 28.7969 60.2539 29.9062 61.3945C31.0156 62.5273 31.5703 63.9727 31.5703 65.7305C31.5703 67.6133 30.9727 69.1836 29.7773 70.4414C28.582 71.6914 27.1016 72.3164 25.3359 72.3164C23.6328 72.3164 22.207 71.7305 21.0586 70.5586C19.9102 69.3789 19.3359 67.9219 19.3359 66.1875ZM35.8125 71.7188C35.5781 71.9531 35.3945 72.2188 35.2617 72.5156C35.1367 72.8125 35.0742 73.1211 35.0742 73.4414C35.0742 74.1914 35.4062 74.7891 36.0703 75.2344C36.7422 75.6875 37.6445 75.9141 38.7773 75.9141C40.0742 75.9141 41.1406 75.6406 41.9766 75.0938C42.8203 74.5547 43.2422 73.8828 43.2422 73.0781C43.2422 72.5859 43.0859 72.2109 42.7734 71.9531C42.4609 71.6953 42.0078 71.5664 41.4141 71.5664C41.2109 71.5664 40.6758 71.6211 39.8086 71.7305C38.9414 71.832 38.1719 71.8828 37.5 71.8828C37.1719 71.8828 36.8711 71.8711 36.5977 71.8477C36.3242 71.8164 36.0625 71.7734 35.8125 71.7188ZM35.6016 67.1719C35.0469 66.8203 34.6289 66.3828 34.3477 65.8594C34.0664 65.3359 33.9258 64.7344 33.9258 64.0547C33.9258 62.7812 34.3945 61.7305 35.332 60.9023C36.2695 60.0742 37.457 59.6602 38.8945 59.6602C39.3555 59.6602 39.9258 59.7305 40.6055 59.8711C41.2852 60.0039 41.7383 60.0703 41.9648 60.0703C42.3164 60.0703 42.6641 59.9922 43.0078 59.8359C43.3516 59.6719 43.668 59.4375 43.957 59.1328C44.1133 59.1875 44.2305 59.2773 44.3086 59.4023C44.3945 59.5195 44.4375 59.6719 44.4375 59.8594C44.4375 60.1719 44.3125 60.4688 44.0625 60.75C43.8125 61.0312 43.4492 61.2773 42.9727 61.4883C43.1758 61.8242 43.3242 62.1641 43.418 62.5078C43.5195 62.8438 43.5703 63.1914 43.5703 63.5508C43.5703 64.8242 43.082 65.8828 42.1055 66.7266C41.1367 67.5703 39.9141 67.9922 38.4375 67.9922C38.0859 67.9922 37.7383 67.957 37.3945 67.8867C37.0508 67.8164 36.7188 67.7148 36.3984 67.582C36.0547 67.7148 35.7812 67.9141 35.5781 68.1797C35.375 68.4453 35.2734 68.7344 35.2734 69.0469C35.2734 69.3906 35.4258 69.6758 35.7305 69.9023C36.043 70.1289 36.4336 70.2422 36.9023 70.2422C37.418 70.2422 38.25 70.1719 39.3984 70.0312C40.5469 69.8906 41.4336 69.8203 42.0586 69.8203C43.0039 69.8203 43.7422 70.0586 44.2734 70.5352C44.8125 71.0039 45.082 71.6523 45.082 72.4805C45.082 73.7461 44.4492 74.8047 43.1836 75.6562C41.918 76.5156 40.3125 76.9453 38.3672 76.9453C36.8594 76.9453 35.6445 76.6367 34.7227 76.0195C33.8086 75.4102 33.3516 74.6133 33.3516 73.6289C33.3516 73.1523 33.4727 72.7344 33.7148 72.375C33.957 72.0156 34.3477 71.6758 34.8867 71.3555C34.4414 71.1602 34.1094 70.9219 33.8906 70.6406C33.6719 70.3594 33.5625 70.0195 33.5625 69.6211C33.5625 69.1133 33.7344 68.6523 34.0781 68.2383C34.4219 67.8242 34.9297 67.4688 35.6016 67.1719ZM35.8008 63.8203C35.8008 64.7891 36.0625 65.5742 36.5859 66.1758C37.1094 66.7773 37.7891 67.0781 38.625 67.0781C39.5 67.0781 40.2188 66.7773 40.7812 66.1758C41.3438 65.5742 41.625 64.8047 41.625 63.8672C41.625 62.8906 41.3516 62.1016 40.8047 61.5C40.2578 60.8984 39.543 60.5977 38.6602 60.5977C37.8477 60.5977 37.168 60.9023 36.6211 61.5117C36.0742 62.1211 35.8008 62.8906 35.8008 63.8203ZM61.2891 72.4805C60.2891 72.4805 59.3359 72.332 58.4297 72.0352C57.5312 71.7461 56.7148 71.3203 55.9805 70.7578C54.8633 69.8906 53.9922 68.7812 53.3672 67.4297C52.7422 66.0703 52.4297 64.6016 52.4297 63.0234C52.4297 62 52.5703 61.0273 52.8516 60.1055C53.1406 59.1836 53.5586 58.3398 54.1055 57.5742C54.8711 56.4961 55.8633 55.6602 57.082 55.0664C58.3008 54.4648 59.6367 54.1641 61.0898 54.1641C62.0898 54.1641 63.0352 54.3203 63.9258 54.6328C64.8164 54.9453 65.6328 55.4062 66.375 56.0156C67.4141 56.8672 68.2188 57.9609 68.7891 59.2969C69.3672 60.6328 69.6562 62.0742 69.6562 63.6211C69.6562 64.668 69.5234 65.6523 69.2578 66.5742C68.9922 67.4961 68.5977 68.3281 68.0742 69.0703C67.3164 70.1641 66.3516 71.0078 65.1797 71.6016C64.0078 72.1875 62.7109 72.4805 61.2891 72.4805ZM67.3125 64.3008C67.3125 63.2617 67.1875 62.2656 66.9375 61.3125C66.6875 60.3516 66.332 59.5078 65.8711 58.7812C65.1992 57.7109 64.3984 56.8945 63.4688 56.332C62.5469 55.7695 61.5469 55.4883 60.4688 55.4883C58.75 55.4883 57.3711 56.1094 56.332 57.3516C55.3008 58.5938 54.7852 60.2539 54.7852 62.332C54.7852 63.3789 54.9102 64.3945 55.1602 65.3789C55.418 66.3555 55.7891 67.2344 56.2734 68.0156C56.8906 69.0469 57.6445 69.8281 58.5352 70.3594C59.4258 70.8906 60.4297 71.1562 61.5469 71.1562C63.3125 71.1562 64.7148 70.543 65.7539 69.3164C66.793 68.082 67.3125 66.4102 67.3125 64.3008ZM80.6719 71.4492V70.4414C80.6719 70.3086 80.6602 70.2188 80.6367 70.1719C80.6133 70.125 80.5781 70.1016 80.5312 70.1016C80.4219 70.1016 80.2617 70.2461 80.0508 70.5352C79.8789 70.7773 79.7344 70.9609 79.6172 71.0859C79.25 71.5 78.8203 71.8086 78.3281 72.0117C77.8438 72.2148 77.2891 72.3164 76.6641 72.3164C75.2109 72.3164 74.1484 71.8594 73.4766 70.9453C72.8047 70.0312 72.4688 68.582 72.4688 66.5977V64.582C72.4688 63.4414 72.4414 62.6836 72.3867 62.3086C72.332 61.9336 72.2383 61.6992 72.1055 61.6055C72.0586 61.5742 71.8398 61.5352 71.4492 61.4883C71.0586 61.4336 70.8594 61.2656 70.8516 60.9844C70.8516 60.8359 70.9219 60.6992 71.0625 60.5742C71.2109 60.4492 71.4375 60.3203 71.7422 60.1875C72.1484 60.0312 72.5547 59.9062 72.9609 59.8125C73.3672 59.7109 73.6562 59.6602 73.8281 59.6602C74.0703 59.6602 74.2344 59.7227 74.3203 59.8477C74.4141 59.9648 74.4609 60.1914 74.4609 60.5273C74.4609 60.9336 74.4297 61.625 74.3672 62.6016C74.3125 63.5781 74.2852 64.3516 74.2852 64.9219V65.5898C74.2852 66.7227 74.3086 67.5469 74.3555 68.0625C74.4102 68.5781 74.5 69.0039 74.625 69.3398C74.7969 69.8164 75.0938 70.1914 75.5156 70.4648C75.9453 70.7383 76.4492 70.875 77.0273 70.875C77.6133 70.875 78.1758 70.7344 78.7148 70.4531C79.2539 70.1641 79.7227 69.7578 80.1211 69.2344C80.3164 68.9844 80.4531 68.6836 80.5312 68.332C80.6094 67.9805 80.6484 67.4258 80.6484 66.668V65.2852V64.582C80.6484 63.4492 80.6211 62.6953 80.5664 62.3203C80.5117 61.9453 80.418 61.707 80.2852 61.6055C80.2383 61.5742 80.0234 61.5312 79.6406 61.4766C79.2578 61.4219 79.0664 61.2578 79.0664 60.9844C79.0664 60.8359 79.1328 60.6992 79.2656 60.5742C79.4062 60.4414 79.6289 60.3125 79.9336 60.1875C80.332 60.0312 80.7383 59.9062 81.1523 59.8125C81.5664 59.7109 81.8633 59.6602 82.043 59.6602C82.2695 59.6602 82.4258 59.7188 82.5117 59.8359C82.5977 59.9531 82.6406 60.1836 82.6406 60.5273C82.6406 61.0273 82.6133 61.7969 82.5586 62.8359C82.5039 63.875 82.4766 64.6641 82.4766 65.2031C82.4766 66.9609 82.4961 68.2031 82.5352 68.9297C82.582 69.6484 82.6562 70.0859 82.7578 70.2422C82.8281 70.3516 83.0742 70.4375 83.4961 70.5C83.918 70.5547 84.1289 70.7188 84.1289 70.9922C84.1289 71.2656 83.7969 71.5547 83.1328 71.8594C82.4766 72.1641 81.8477 72.3164 81.2461 72.3164C81.0352 72.3164 80.8867 72.2539 80.8008 72.1289C80.7148 72.0117 80.6719 71.7852 80.6719 71.4492ZM86.4609 61.4414H85.4531C85.3359 61.4414 85.2461 61.4219 85.1836 61.3828C85.1211 61.3359 85.0898 61.2734 85.0898 61.1953V60.8672C85.0898 60.6328 85.3828 60.1914 85.9688 59.543C86.1406 59.3633 86.2695 59.2227 86.3555 59.1211C86.4492 59.0195 86.5742 58.8789 86.7305 58.6992C87.3164 58.0273 87.7148 57.6914 87.9258 57.6914C88.0508 57.6914 88.1445 57.7227 88.207 57.7852C88.2773 57.8477 88.3125 57.9375 88.3125 58.0547V60.1875H90.7266C90.8828 60.1875 90.9922 60.2266 91.0547 60.3047C91.125 60.375 91.1602 60.4961 91.1602 60.668V60.9844C91.1602 61.1406 91.125 61.2578 91.0547 61.3359C90.9844 61.4062 90.875 61.4414 90.7266 61.4414H88.5703C88.4922 61.4414 88.4297 61.4766 88.3828 61.5469C88.3359 61.6094 88.3125 61.7031 88.3125 61.8281V68.332C88.3125 69.3164 88.4062 69.9844 88.5938 70.3359C88.7891 70.6797 89.125 70.8516 89.6016 70.8516C89.8281 70.8516 90.0938 70.7891 90.3984 70.6641C90.7031 70.5312 90.8945 70.4648 90.9727 70.4648C91.0977 70.4648 91.1953 70.5 91.2656 70.5703C91.3438 70.6406 91.3828 70.7344 91.3828 70.8516C91.3828 71.1953 91.1211 71.5312 90.5977 71.8594C90.0742 72.1797 89.4883 72.3398 88.8398 72.3398C87.9883 72.3398 87.3789 72.0781 87.0117 71.5547C86.6445 71.0312 86.4609 70.1484 86.4609 68.9062V61.4414Z" fill="#6696D4"/>
</svg>
