<svg width="136" height="137" viewBox="0 0 136 137" fill="none" xmlns="http://www.w3.org/2000/svg">
<path d="M51.3496 8.73098C51.8388 7.63083 51.9976 6.41217 51.8066 5.22339C51.6156 4.03462 51.083 2.92704 50.2738 2.03554C49.4645 1.14404 48.4135 0.507087 47.2487 0.202261C46.0839 -0.102565 44.8556 -0.0621136 43.7134 0.318688C34.6989 3.32352 27.5096 9.24006 20.9164 15.8333C14.2883 22.4121 9.02783 30.2376 5.438 38.8587C1.84817 47.4799 0 56.7262 0 66.0649C0 75.4036 1.84817 84.65 5.438 93.2711C9.02783 101.892 14.2883 109.718 20.9164 116.297C48.9656 144.352 92.3743 142.75 120.101 115.024C126.694 108.431 132.604 101.241 135.609 92.2206C135.978 91.1117 136.026 89.9212 135.748 88.7861C135.47 87.651 134.877 86.6174 134.038 85.8041C133.199 84.9909 132.147 84.431 131.004 84.1888C129.861 83.9467 128.672 84.0322 127.576 84.4354C105.288 92.6428 79.9266 88.9923 62.804 71.8635C45.6255 54.6851 42.1364 29.4544 51.3496 8.73098Z" fill="#FFDE82"/>
<circle cx="43.2627" cy="87.2707" r="2.47679" fill="#506384"/>
<circle cx="55.2627" cy="87.2707" r="2.47679" fill="#506384"/>
<path d="M35.7859 94.7939C40.397 97.8124 52.4526 102.038 63.7859 94.7939" stroke="#506384" stroke-width="4" stroke-linecap="round"/>
</svg>
