<svg width="424" height="149" viewBox="0 0 424 149" fill="none" xmlns="http://www.w3.org/2000/svg">
<path d="M57.5637 14.937C58.053 13.8369 58.2117 12.6182 58.0207 11.4294C57.8297 10.2407 57.2971 9.13309 56.4879 8.24159C55.6786 7.35009 54.6276 6.71314 53.4628 6.40832C52.298 6.10349 51.0697 6.14394 49.9275 6.52474C40.913 9.52958 33.7237 15.4461 27.1305 22.0394C20.5025 28.6182 15.2419 36.4436 11.6521 45.0648C8.06228 53.6859 6.21411 62.9323 6.21411 72.271C6.21411 81.6097 8.06228 90.856 11.6521 99.4772C15.2419 108.098 20.5025 115.924 27.1305 122.503C55.1797 150.558 98.5884 148.956 126.315 121.23C132.908 114.637 138.818 107.447 141.823 98.4267C142.192 97.3177 142.24 96.1273 141.962 94.9922C141.684 93.8571 141.091 92.8235 140.252 92.0102C139.413 91.1969 138.361 90.637 137.218 90.3949C136.075 90.1528 134.886 90.2382 133.79 90.6415C111.502 98.8489 86.1407 95.1984 69.0181 78.0696C51.8396 60.8911 48.3506 35.6605 57.5637 14.937Z" fill="url(#paint0_linear_222_825)"/>
<path d="M97.1256 8.11331L92.2042 36.0757C91.9584 37.4724 90.3772 38.1767 89.1745 37.425L84.3986 34.4401C82.9492 33.5342 81.1049 34.7462 81.3613 36.4361L83.178 48.41C83.3339 49.438 82.6762 50.414 81.6648 50.6553L61.7599 55.4054C59.8982 55.8497 59.6639 58.4037 61.4138 59.1793L81.9516 68.2813C82.8247 68.6682 83.3024 69.6184 83.0922 70.55L81.621 77.07C81.2525 78.7033 82.9341 80.0393 84.4418 79.3112L89.5088 76.864C90.6402 76.3176 91.9892 76.9374 92.3116 78.1517L99.2941 104.449C99.8253 106.45 102.673 106.425 103.169 104.415L109.615 78.2696C109.924 77.0151 111.324 76.3787 112.473 76.9705L117.601 79.6121C118.932 80.2978 120.517 79.3314 120.517 77.8341V68.0971C120.517 67.2894 121.002 66.561 121.748 66.2507L143.624 57.1456C145.382 56.4141 145.22 53.873 143.384 53.3702L121.988 47.5117C121.119 47.2737 120.517 46.4838 120.517 45.5827V33.8774C120.517 32.2428 118.662 31.2985 117.34 32.2599L112.477 35.7967C111.37 36.6021 109.799 36.0816 109.391 34.7743L101.005 7.86488C100.381 5.86312 97.489 6.04832 97.1256 8.11331Z" fill="url(#paint1_linear_222_825)"/>
<circle cx="95" cy="49" r="2" fill="#506384"/>
<circle cx="106" cy="49" r="2" fill="#506384"/>
<path d="M92 54C94.9643 56.2639 102.714 59.4333 110 54" stroke="#506384" stroke-width="3" stroke-linecap="round"/>
<circle cx="49.4768" cy="93.4768" r="2.47679" fill="#506384"/>
<circle cx="61.4768" cy="93.4768" r="2.47679" fill="#506384"/>
<path d="M42 101C46.6111 104.018 58.6667 108.244 70 101" stroke="#506384" stroke-width="3" stroke-linecap="round"/>
<path d="M199.906 68.5C198.531 64.5833 197.396 61.7188 196.5 59.9062C195.625 58.0938 194.802 56.8854 194.031 56.2812C193.865 56.1562 193.24 55.8958 192.156 55.5C191.094 55.0833 190.562 54.4688 190.562 53.6562C190.562 52.7604 191.062 52.1562 192.062 51.8438C193.083 51.5104 195.656 51.3438 199.781 51.3438C203.885 51.3438 206.438 51.5104 207.438 51.8438C208.438 52.1562 208.938 52.7604 208.938 53.6562C208.938 54.5104 208.125 55.2396 206.5 55.8438C206.396 55.8854 206.302 55.9271 206.219 55.9688C205.719 56.1354 205.344 56.375 205.094 56.6875C204.844 57 204.719 57.3958 204.719 57.875C204.719 58.6667 205.229 60.5417 206.25 63.5C207.292 66.4375 209.104 71.1979 211.688 77.7812C212.688 80.3229 213.438 82.0625 213.938 83C214.438 83.9167 214.844 84.375 215.156 84.375C215.469 84.375 215.833 84.0104 216.25 83.2812C216.688 82.5521 217.406 80.9688 218.406 78.5312L218.969 77.1562C223.469 66.3229 225.719 60.2396 225.719 58.9062C225.719 58.2188 225.552 57.6458 225.219 57.1875C224.906 56.7292 224.385 56.3438 223.656 56.0312C223.49 55.9479 223.25 55.8333 222.938 55.6875C221.667 55.1667 221.031 54.4896 221.031 53.6562C221.031 52.7604 221.458 52.1562 222.312 51.8438C223.188 51.5104 225.406 51.3438 228.969 51.3438C232.385 51.3438 234.542 51.5104 235.438 51.8438C236.333 52.1562 236.781 52.7604 236.781 53.6562C236.781 54.4896 236.146 55.1771 234.875 55.7188C234.25 55.9896 233.792 56.2188 233.5 56.4062C232 57.3854 229.812 61.5833 226.938 69C225.812 71.8958 224.906 74.1771 224.219 75.8438L218.031 91.1562C217.74 91.8438 217.354 92.8021 216.875 94.0312C215.562 97.4896 214.427 99.2188 213.469 99.2188C212.365 99.2188 210.208 95.0312 207 86.6562C205.125 81.8021 203.573 77.8646 202.344 74.8438L195.625 91.4688C195.396 92.0521 195.073 92.875 194.656 93.9375C193.302 97.4583 192.198 99.2188 191.344 99.2188C190.573 99.2188 189.802 98.3021 189.031 96.4688C188.844 96.0312 188.698 95.6979 188.594 95.4688C185.823 89.4479 182.312 80.8438 178.062 69.6562C176.729 66.1354 175.74 63.5312 175.094 61.8438C174.365 60.0729 173.719 58.7604 173.156 57.9062C172.594 57.0312 171.969 56.3958 171.281 56C171.094 55.8958 170.781 55.7812 170.344 55.6562C168.969 55.2188 168.281 54.5521 168.281 53.6562C168.281 52.7604 168.781 52.1562 169.781 51.8438C170.802 51.5104 173.375 51.3438 177.5 51.3438C181.604 51.3438 184.156 51.5104 185.156 51.8438C186.156 52.1562 186.656 52.7604 186.656 53.6562C186.656 54.5104 185.812 55.25 184.125 55.875L183.938 55.9375C183.375 56.1458 182.969 56.4062 182.719 56.7188C182.49 57.0104 182.375 57.3958 182.375 57.875C182.375 58.6042 182.823 60.2604 183.719 62.8438C184.615 65.4062 186.448 70.2292 189.219 77.3125C190.448 80.4583 191.271 82.4271 191.688 83.2188C192.125 83.9896 192.521 84.375 192.875 84.375C193.458 84.375 194.958 81.2396 197.375 74.9688C198.417 72.2812 199.26 70.125 199.906 68.5ZM241.125 81.5H240.688C239.479 81.5 238.76 81.5938 238.531 81.7812C238.302 81.9688 238.188 82.4688 238.188 83.2812C238.188 85.9896 239.156 88.3229 241.094 90.2812C243.031 92.2188 245.385 93.1875 248.156 93.1875C249.344 93.1875 250.49 93.0104 251.594 92.6562C252.698 92.3021 253.771 91.7604 254.812 91.0312C255.104 90.8229 255.5 90.5208 256 90.125C257.083 89.2292 257.927 88.7812 258.531 88.7812C259.01 88.7812 259.406 88.9375 259.719 89.25C260.031 89.5625 260.188 89.9375 260.188 90.375C260.188 90.8958 259.917 91.5417 259.375 92.3125C258.833 93.0625 258.104 93.8021 257.188 94.5312C255.292 96.0938 253.469 97.2188 251.719 97.9062C249.969 98.5729 248.062 98.9062 246 98.9062C241.375 98.9062 237.51 97.3333 234.406 94.1875C231.323 91.0208 229.781 87.1042 229.781 82.4375C229.781 77.3542 231.365 73.1771 234.531 69.9062C237.719 66.6146 241.792 64.9688 246.75 64.9688C250.938 64.9688 254.25 66.1667 256.688 68.5625C259.146 70.9375 260.375 74.1562 260.375 78.2188C260.375 79.5521 260.177 80.4375 259.781 80.875C259.385 81.2917 258.375 81.5 256.75 81.5H241.125ZM240.469 77.7812H251.031C251.865 77.7812 252.417 77.6979 252.688 77.5312C252.958 77.3646 253.094 77.0417 253.094 76.5625C253.094 74.4583 252.385 72.6979 250.969 71.2812C249.573 69.8438 247.802 69.125 245.656 69.125C243.594 69.125 241.885 69.8438 240.531 71.2812C239.177 72.6979 238.5 74.4583 238.5 76.5625C238.5 77.0417 238.625 77.3646 238.875 77.5312C239.125 77.6979 239.656 77.7812 240.469 77.7812ZM267.688 73.0938V70.5938C267.688 65.1562 267.594 61.6458 267.406 60.0625C267.219 58.4792 266.896 57.5625 266.438 57.3125C265.958 57.0625 265.292 56.8229 264.438 56.5938C263.062 56.2188 262.375 55.6458 262.375 54.875C262.375 54.3333 262.583 53.8854 263 53.5312C263.438 53.1562 264.427 52.7083 265.969 52.1875C267.469 51.6667 268.917 51.2604 270.312 50.9688C271.729 50.6562 272.865 50.5 273.719 50.5C274.365 50.5 274.823 50.7083 275.094 51.125C275.365 51.5208 275.5 52.2292 275.5 53.25C275.5 53.5417 275.479 54.375 275.438 55.75C275.188 63.4792 275.062 71.2917 275.062 79.1875C275.062 84.9583 275.125 88.6458 275.25 90.25C275.396 91.8333 275.646 92.8333 276 93.25C276.208 93.4792 276.812 93.7917 277.812 94.1875C278.833 94.5833 279.344 95.1979 279.344 96.0312C279.344 96.8646 278.802 97.4583 277.719 97.8125C276.635 98.1458 274.677 98.3125 271.844 98.3125C268.531 98.3125 266.344 98.1354 265.281 97.7812C264.24 97.4271 263.719 96.7708 263.719 95.8125C263.719 95.1458 264.167 94.6146 265.062 94.2188C265.958 93.8229 266.51 93.5208 266.719 93.3125C267.094 92.9583 267.354 92.125 267.5 90.8125C267.667 89.4792 267.75 87.3333 267.75 84.375C267.75 83.5 267.74 81.8125 267.719 79.3125C267.698 76.8125 267.688 74.7396 267.688 73.0938ZM285.938 73.0938V70.5938C285.938 65.1562 285.844 61.6458 285.656 60.0625C285.469 58.4792 285.146 57.5625 284.688 57.3125C284.208 57.0625 283.542 56.8229 282.688 56.5938C281.312 56.2188 280.625 55.6458 280.625 54.875C280.625 54.3333 280.833 53.8854 281.25 53.5312C281.688 53.1562 282.677 52.7083 284.219 52.1875C285.719 51.6667 287.167 51.2604 288.562 50.9688C289.979 50.6562 291.115 50.5 291.969 50.5C292.615 50.5 293.073 50.7083 293.344 51.125C293.615 51.5208 293.75 52.2292 293.75 53.25C293.75 53.5417 293.729 54.375 293.688 55.75C293.438 63.4792 293.312 71.2917 293.312 79.1875C293.312 84.9583 293.375 88.6458 293.5 90.25C293.646 91.8333 293.896 92.8333 294.25 93.25C294.458 93.4792 295.062 93.7917 296.062 94.1875C297.083 94.5833 297.594 95.1979 297.594 96.0312C297.594 96.8646 297.052 97.4583 295.969 97.8125C294.885 98.1458 292.927 98.3125 290.094 98.3125C286.781 98.3125 284.594 98.1354 283.531 97.7812C282.49 97.4271 281.969 96.7708 281.969 95.8125C281.969 95.1458 282.417 94.6146 283.312 94.2188C284.208 93.8229 284.76 93.5208 284.969 93.3125C285.344 92.9583 285.604 92.125 285.75 90.8125C285.917 89.4792 286 87.3333 286 84.375C286 83.5 285.99 81.8125 285.969 79.3125C285.948 76.8125 285.938 74.7396 285.938 73.0938ZM313.375 68.9062C313.542 68.7604 313.771 68.5521 314.062 68.2812C316.417 66.0729 318.969 64.9688 321.719 64.9688C323.281 64.9688 324.781 65.3125 326.219 66C327.677 66.6667 328.906 67.5833 329.906 68.75C330.906 69.9375 331.615 71.3542 332.031 73C332.448 74.6458 332.656 77.2188 332.656 80.7188V85.125C332.656 85.6667 332.646 86.375 332.625 87.25C332.604 88.125 332.594 88.7396 332.594 89.0938C332.594 90.6354 332.698 91.7292 332.906 92.375C333.135 93 333.521 93.4688 334.062 93.7812C334.271 93.8854 334.552 94 334.906 94.125C335.969 94.5208 336.5 95.0833 336.5 95.8125C336.5 96.75 336 97.3958 335 97.75C334 98.0833 331.833 98.25 328.5 98.25C325.458 98.25 323.417 98.0938 322.375 97.7812C321.354 97.4479 320.844 96.8646 320.844 96.0312C320.844 95.1979 321.385 94.5833 322.469 94.1875C323.031 93.9792 323.438 93.8021 323.688 93.6562C324.188 93.3854 324.542 92.7812 324.75 91.8438C324.958 90.8854 325.062 89.2292 325.062 86.875C325.062 79.9583 324.615 75.625 323.719 73.875C322.844 72.125 321.26 71.25 318.969 71.25C317.802 71.25 316.688 71.6042 315.625 72.3125C314.583 73 313.781 73.9271 313.219 75.0938C312.74 76.0312 312.406 77.3438 312.219 79.0312C312.031 80.7188 311.938 83.7188 311.938 88.0312C311.938 90.1354 312.021 91.5417 312.188 92.25C312.375 92.9375 312.698 93.4062 313.156 93.6562C313.427 93.8021 313.833 93.9792 314.375 94.1875C315.479 94.5833 316.031 95.1979 316.031 96.0312C316.031 96.8646 315.5 97.4583 314.438 97.8125C313.375 98.1458 311.427 98.3125 308.594 98.3125C305.281 98.3125 303.083 98.1354 302 97.7812C300.938 97.4271 300.406 96.7708 300.406 95.8125C300.406 95.0833 300.938 94.5208 302 94.125C302.396 93.9792 302.677 93.8646 302.844 93.7812C303.406 93.4688 303.802 92.9479 304.031 92.2188C304.26 91.4896 304.375 90.3021 304.375 88.6562C304.375 88.2604 304.365 87.5312 304.344 86.4688C304.323 85.4062 304.312 84.5312 304.312 83.8438V80.4688C304.312 77.0521 304.229 74.8229 304.062 73.7812C303.896 72.7396 303.594 72.1042 303.156 71.875C302.823 71.7083 302.312 71.5208 301.625 71.3125C300.312 70.8958 299.656 70.3229 299.656 69.5938C299.656 69.1146 299.854 68.6875 300.25 68.3125C300.667 67.9167 301.344 67.5312 302.281 67.1562C303.885 66.5312 305.448 66.0312 306.969 65.6562C308.49 65.2812 309.615 65.0938 310.344 65.0938C310.948 65.0938 311.385 65.2604 311.656 65.5938C311.927 65.9062 312.062 66.4271 312.062 67.1562V69.3125C312.062 69.4792 312.073 69.5833 312.094 69.625C312.135 69.6667 312.208 69.6979 312.312 69.7188C312.354 69.7188 312.406 69.7083 312.469 69.6875C312.552 69.6458 312.604 69.6146 312.625 69.5938L313.375 68.9062ZM350.812 81.5H350.375C349.167 81.5 348.448 81.5938 348.219 81.7812C347.99 81.9688 347.875 82.4688 347.875 83.2812C347.875 85.9896 348.844 88.3229 350.781 90.2812C352.719 92.2188 355.073 93.1875 357.844 93.1875C359.031 93.1875 360.177 93.0104 361.281 92.6562C362.385 92.3021 363.458 91.7604 364.5 91.0312C364.792 90.8229 365.188 90.5208 365.688 90.125C366.771 89.2292 367.615 88.7812 368.219 88.7812C368.698 88.7812 369.094 88.9375 369.406 89.25C369.719 89.5625 369.875 89.9375 369.875 90.375C369.875 90.8958 369.604 91.5417 369.062 92.3125C368.521 93.0625 367.792 93.8021 366.875 94.5312C364.979 96.0938 363.156 97.2188 361.406 97.9062C359.656 98.5729 357.75 98.9062 355.688 98.9062C351.062 98.9062 347.198 97.3333 344.094 94.1875C341.01 91.0208 339.469 87.1042 339.469 82.4375C339.469 77.3542 341.052 73.1771 344.219 69.9062C347.406 66.6146 351.479 64.9688 356.438 64.9688C360.625 64.9688 363.938 66.1667 366.375 68.5625C368.833 70.9375 370.062 74.1562 370.062 78.2188C370.062 79.5521 369.865 80.4375 369.469 80.875C369.073 81.2917 368.062 81.5 366.438 81.5H350.812ZM350.156 77.7812H360.719C361.552 77.7812 362.104 77.6979 362.375 77.5312C362.646 77.3646 362.781 77.0417 362.781 76.5625C362.781 74.4583 362.073 72.6979 360.656 71.2812C359.26 69.8438 357.49 69.125 355.344 69.125C353.281 69.125 351.573 69.8438 350.219 71.2812C348.865 72.6979 348.188 74.4583 348.188 76.5625C348.188 77.0417 348.312 77.3646 348.562 77.5312C348.812 77.6979 349.344 77.7812 350.156 77.7812ZM379.875 98.125C379.521 98.3958 379.177 98.5938 378.844 98.7188C378.531 98.8438 378.208 98.9062 377.875 98.9062C377.667 98.9062 377.448 98.8542 377.219 98.75C377.01 98.6667 376.781 98.5208 376.531 98.3125C375.823 97.7083 375.156 96.5312 374.531 94.7812C373.906 93.0312 373.594 91.3542 373.594 89.75C373.594 89.0625 373.781 88.4896 374.156 88.0312C374.531 87.5521 374.99 87.3125 375.531 87.3125C376.531 87.3125 377.542 88.1875 378.562 89.9375C379.062 90.8125 379.479 91.4688 379.812 91.9062C380.458 92.7604 381.344 93.4375 382.469 93.9375C383.594 94.4375 384.802 94.6875 386.094 94.6875C387.531 94.6875 388.667 94.3333 389.5 93.625C390.333 92.8958 390.75 91.9271 390.75 90.7188C390.75 88.8854 388.927 87.0938 385.281 85.3438C384.49 84.9688 383.865 84.6667 383.406 84.4375C380.01 82.75 377.719 81.1979 376.531 79.7812C375.344 78.3646 374.75 76.625 374.75 74.5625C374.75 71.7292 375.729 69.4271 377.688 67.6562C379.646 65.8646 382.208 64.9688 385.375 64.9688C386.146 64.9688 386.917 65.0104 387.688 65.0938C388.458 65.1771 389.229 65.3125 390 65.5C390.604 65.2292 391.115 65.0312 391.531 64.9062C391.948 64.7812 392.281 64.7188 392.531 64.7188C393.594 64.7188 394.625 65.5729 395.625 67.2812C396.646 68.9896 397.156 70.7812 397.156 72.6562C397.156 73.4271 396.99 74.0312 396.656 74.4688C396.323 74.8854 395.844 75.0938 395.219 75.0938C394.719 75.0938 394.229 74.8958 393.75 74.5C393.271 74.0833 392.698 73.3438 392.031 72.2812C391.219 70.9479 390.375 70.0208 389.5 69.5C388.646 68.9583 387.615 68.6875 386.406 68.6875C385.135 68.6875 384.115 69.0417 383.344 69.75C382.573 70.4583 382.188 71.3854 382.188 72.5312C382.188 73.5104 382.573 74.3854 383.344 75.1562C384.135 75.9271 385.906 76.9896 388.656 78.3438C388.719 78.3854 388.833 78.4479 389 78.5312C395.042 81.5104 398.062 84.7604 398.062 88.2812C398.062 91.3021 396.896 93.8333 394.562 95.875C392.25 97.8958 389.354 98.9062 385.875 98.9062C385.146 98.9062 384.281 98.8333 383.281 98.6875C382.302 98.5625 381.167 98.375 379.875 98.125ZM420.281 65.875C420.823 65.875 421.188 65.9792 421.375 66.1875C421.583 66.3958 421.688 66.8021 421.688 67.4062V68.1875C421.688 68.75 421.573 69.1562 421.344 69.4062C421.135 69.6562 420.781 69.7812 420.281 69.7812H413.562C413.354 69.7812 413.188 69.875 413.062 70.0625C412.938 70.2292 412.875 70.4792 412.875 70.8125V87C412.875 89.7917 413.104 91.5417 413.562 92.25C414.042 92.9583 414.917 93.3125 416.188 93.3125C416.875 93.3125 417.75 93.1354 418.812 92.7812C419.896 92.4271 420.646 92.25 421.062 92.25C421.542 92.25 421.938 92.3958 422.25 92.6875C422.562 92.9583 422.719 93.3229 422.719 93.7812C422.719 94.9688 421.792 96.125 419.938 97.25C418.104 98.3542 416.021 98.9062 413.688 98.9062C412.333 98.9062 411.115 98.7292 410.031 98.375C408.969 98.0208 408.052 97.4896 407.281 96.7812C406.51 96.0729 405.969 95.125 405.656 93.9375C405.344 92.7292 405.188 90.5 405.188 87.25V69.7812H402.188C401.729 69.7812 401.406 69.6979 401.219 69.5312C401.052 69.3646 400.969 69.0833 400.969 68.6875V67.9062C400.969 67.1979 402.104 65.875 404.375 63.9375C404.938 63.4583 405.385 63.0729 405.719 62.7812C406.01 62.5312 406.427 62.1667 406.969 61.6875C409.219 59.7083 410.76 58.7188 411.594 58.7188C412.031 58.7188 412.375 58.8125 412.625 59C412.875 59.1875 413 59.4479 413 59.7812V65.875H420.281Z" fill="url(#paint2_linear_222_825)"/>
<defs>
<linearGradient id="paint0_linear_222_825" x1="74.1771" y1="6.20605" x2="74.1771" y2="142.798" gradientUnits="userSpaceOnUse">
<stop stop-color="#DD9D9E"/>
<stop offset="1" stop-color="#86B6F4"/>
</linearGradient>
<linearGradient id="paint1_linear_222_825" x1="104" y1="34.8108" x2="102.473" y2="111.999" gradientUnits="userSpaceOnUse">
<stop stop-color="#86B6F4"/>
<stop offset="0.715657" stop-color="#DD9D9E"/>
</linearGradient>
<linearGradient id="paint2_linear_222_825" x1="184.437" y1="74.5" x2="371.946" y2="90.0871" gradientUnits="userSpaceOnUse">
<stop offset="0.269662" stop-color="#88B6F2"/>
<stop offset="1" stop-color="#DB9EA1"/>
</linearGradient>
</defs>
</svg>
