<svg width="422" height="149" viewBox="0 0 422 149" fill="none" xmlns="http://www.w3.org/2000/svg">
<path d="M57.5637 14.937C58.053 13.8369 58.2117 12.6182 58.0207 11.4294C57.8297 10.2407 57.2971 9.13309 56.4879 8.24159C55.6786 7.35009 54.6276 6.71314 53.4628 6.40832C52.298 6.10349 51.0697 6.14394 49.9275 6.52474C40.913 9.52958 33.7237 15.4461 27.1305 22.0394C20.5025 28.6182 15.2419 36.4436 11.6521 45.0648C8.06228 53.6859 6.21411 62.9323 6.21411 72.271C6.21411 81.6097 8.06228 90.856 11.6521 99.4772C15.2419 108.098 20.5025 115.924 27.1305 122.503C55.1797 150.558 98.5884 148.956 126.315 121.23C132.908 114.637 138.818 107.447 141.823 98.4267C142.192 97.3177 142.24 96.1273 141.962 94.9922C141.684 93.8571 141.091 92.8235 140.252 92.0102C139.413 91.1969 138.361 90.637 137.218 90.3949C136.075 90.1528 134.886 90.2382 133.79 90.6415C111.502 98.8489 86.1407 95.1984 69.0181 78.0696C51.8396 60.8911 48.3506 35.6605 57.5637 14.937Z" fill="#D99DA1"/>
<path d="M97.1256 8.11331L92.2042 36.0757C91.9584 37.4724 90.3772 38.1767 89.1745 37.425L84.3986 34.4401C82.9492 33.5342 81.1049 34.7462 81.3613 36.4361L83.178 48.41C83.3339 49.438 82.6762 50.414 81.6648 50.6553L61.7599 55.4054C59.8982 55.8497 59.6639 58.4037 61.4138 59.1793L81.9516 68.2813C82.8247 68.6682 83.3024 69.6184 83.0922 70.55L81.621 77.07C81.2525 78.7033 82.9341 80.0393 84.4418 79.3112L89.5088 76.864C90.6402 76.3176 91.9892 76.9374 92.3116 78.1517L99.2941 104.449C99.8253 106.45 102.673 106.425 103.169 104.415L109.615 78.2696C109.924 77.0151 111.324 76.3787 112.473 76.9705L117.601 79.6121C118.932 80.2978 120.517 79.3314 120.517 77.8341V68.0971C120.517 67.2894 121.002 66.561 121.748 66.2507L143.624 57.1456C145.382 56.4141 145.22 53.873 143.384 53.3702L121.988 47.5117C121.119 47.2737 120.517 46.4838 120.517 45.5827V33.8774C120.517 32.2428 118.662 31.2985 117.34 32.2599L112.477 35.7967C111.37 36.6021 109.799 36.0816 109.391 34.7743L101.005 7.86488C100.381 5.86312 97.489 6.04832 97.1256 8.11331Z" fill="#D99DA1"/>
<circle cx="95" cy="49" r="2" fill="#D99DA1"/>
<circle cx="106" cy="49" r="2" fill="#D99DA1"/>
<path d="M92 54C94.9643 56.2639 102.714 59.4333 110 54" stroke="#D99DA1" stroke-width="3" stroke-linecap="round"/>
<circle cx="49.4768" cy="93.4768" r="2.47679" fill="#D99DA1"/>
<circle cx="61.4768" cy="93.4768" r="2.47679" fill="#D99DA1"/>
<path d="M42 101C46.6111 104.018 58.6667 108.244 70 101" stroke="#D99DA1" stroke-width="3" stroke-linecap="round"/>
<path d="M197.906 68.5C196.531 64.5833 195.396 61.7188 194.5 59.9062C193.625 58.0938 192.802 56.8854 192.031 56.2812C191.865 56.1562 191.24 55.8958 190.156 55.5C189.094 55.0833 188.562 54.4688 188.562 53.6562C188.562 52.7604 189.062 52.1562 190.062 51.8438C191.083 51.5104 193.656 51.3438 197.781 51.3438C201.885 51.3438 204.438 51.5104 205.438 51.8438C206.438 52.1562 206.938 52.7604 206.938 53.6562C206.938 54.5104 206.125 55.2396 204.5 55.8438C204.396 55.8854 204.302 55.9271 204.219 55.9688C203.719 56.1354 203.344 56.375 203.094 56.6875C202.844 57 202.719 57.3958 202.719 57.875C202.719 58.6667 203.229 60.5417 204.25 63.5C205.292 66.4375 207.104 71.1979 209.688 77.7812C210.688 80.3229 211.438 82.0625 211.938 83C212.438 83.9167 212.844 84.375 213.156 84.375C213.469 84.375 213.833 84.0104 214.25 83.2812C214.688 82.5521 215.406 80.9688 216.406 78.5312L216.969 77.1562C221.469 66.3229 223.719 60.2396 223.719 58.9062C223.719 58.2188 223.552 57.6458 223.219 57.1875C222.906 56.7292 222.385 56.3438 221.656 56.0312C221.49 55.9479 221.25 55.8333 220.938 55.6875C219.667 55.1667 219.031 54.4896 219.031 53.6562C219.031 52.7604 219.458 52.1562 220.312 51.8438C221.188 51.5104 223.406 51.3438 226.969 51.3438C230.385 51.3438 232.542 51.5104 233.438 51.8438C234.333 52.1562 234.781 52.7604 234.781 53.6562C234.781 54.4896 234.146 55.1771 232.875 55.7188C232.25 55.9896 231.792 56.2188 231.5 56.4062C230 57.3854 227.812 61.5833 224.938 69C223.812 71.8958 222.906 74.1771 222.219 75.8438L216.031 91.1562C215.74 91.8438 215.354 92.8021 214.875 94.0312C213.562 97.4896 212.427 99.2188 211.469 99.2188C210.365 99.2188 208.208 95.0312 205 86.6562C203.125 81.8021 201.573 77.8646 200.344 74.8438L193.625 91.4688C193.396 92.0521 193.073 92.875 192.656 93.9375C191.302 97.4583 190.198 99.2188 189.344 99.2188C188.573 99.2188 187.802 98.3021 187.031 96.4688C186.844 96.0312 186.698 95.6979 186.594 95.4688C183.823 89.4479 180.312 80.8438 176.062 69.6562C174.729 66.1354 173.74 63.5312 173.094 61.8438C172.365 60.0729 171.719 58.7604 171.156 57.9062C170.594 57.0312 169.969 56.3958 169.281 56C169.094 55.8958 168.781 55.7812 168.344 55.6562C166.969 55.2188 166.281 54.5521 166.281 53.6562C166.281 52.7604 166.781 52.1562 167.781 51.8438C168.802 51.5104 171.375 51.3438 175.5 51.3438C179.604 51.3438 182.156 51.5104 183.156 51.8438C184.156 52.1562 184.656 52.7604 184.656 53.6562C184.656 54.5104 183.812 55.25 182.125 55.875L181.938 55.9375C181.375 56.1458 180.969 56.4062 180.719 56.7188C180.49 57.0104 180.375 57.3958 180.375 57.875C180.375 58.6042 180.823 60.2604 181.719 62.8438C182.615 65.4062 184.448 70.2292 187.219 77.3125C188.448 80.4583 189.271 82.4271 189.688 83.2188C190.125 83.9896 190.521 84.375 190.875 84.375C191.458 84.375 192.958 81.2396 195.375 74.9688C196.417 72.2812 197.26 70.125 197.906 68.5ZM239.125 81.5H238.688C237.479 81.5 236.76 81.5938 236.531 81.7812C236.302 81.9688 236.188 82.4688 236.188 83.2812C236.188 85.9896 237.156 88.3229 239.094 90.2812C241.031 92.2188 243.385 93.1875 246.156 93.1875C247.344 93.1875 248.49 93.0104 249.594 92.6562C250.698 92.3021 251.771 91.7604 252.812 91.0312C253.104 90.8229 253.5 90.5208 254 90.125C255.083 89.2292 255.927 88.7812 256.531 88.7812C257.01 88.7812 257.406 88.9375 257.719 89.25C258.031 89.5625 258.188 89.9375 258.188 90.375C258.188 90.8958 257.917 91.5417 257.375 92.3125C256.833 93.0625 256.104 93.8021 255.188 94.5312C253.292 96.0938 251.469 97.2188 249.719 97.9062C247.969 98.5729 246.062 98.9062 244 98.9062C239.375 98.9062 235.51 97.3333 232.406 94.1875C229.323 91.0208 227.781 87.1042 227.781 82.4375C227.781 77.3542 229.365 73.1771 232.531 69.9062C235.719 66.6146 239.792 64.9688 244.75 64.9688C248.938 64.9688 252.25 66.1667 254.688 68.5625C257.146 70.9375 258.375 74.1562 258.375 78.2188C258.375 79.5521 258.177 80.4375 257.781 80.875C257.385 81.2917 256.375 81.5 254.75 81.5H239.125ZM238.469 77.7812H249.031C249.865 77.7812 250.417 77.6979 250.688 77.5312C250.958 77.3646 251.094 77.0417 251.094 76.5625C251.094 74.4583 250.385 72.6979 248.969 71.2812C247.573 69.8438 245.802 69.125 243.656 69.125C241.594 69.125 239.885 69.8438 238.531 71.2812C237.177 72.6979 236.5 74.4583 236.5 76.5625C236.5 77.0417 236.625 77.3646 236.875 77.5312C237.125 77.6979 237.656 77.7812 238.469 77.7812ZM265.688 73.0938V70.5938C265.688 65.1562 265.594 61.6458 265.406 60.0625C265.219 58.4792 264.896 57.5625 264.438 57.3125C263.958 57.0625 263.292 56.8229 262.438 56.5938C261.062 56.2188 260.375 55.6458 260.375 54.875C260.375 54.3333 260.583 53.8854 261 53.5312C261.438 53.1562 262.427 52.7083 263.969 52.1875C265.469 51.6667 266.917 51.2604 268.312 50.9688C269.729 50.6562 270.865 50.5 271.719 50.5C272.365 50.5 272.823 50.7083 273.094 51.125C273.365 51.5208 273.5 52.2292 273.5 53.25C273.5 53.5417 273.479 54.375 273.438 55.75C273.188 63.4792 273.062 71.2917 273.062 79.1875C273.062 84.9583 273.125 88.6458 273.25 90.25C273.396 91.8333 273.646 92.8333 274 93.25C274.208 93.4792 274.812 93.7917 275.812 94.1875C276.833 94.5833 277.344 95.1979 277.344 96.0312C277.344 96.8646 276.802 97.4583 275.719 97.8125C274.635 98.1458 272.677 98.3125 269.844 98.3125C266.531 98.3125 264.344 98.1354 263.281 97.7812C262.24 97.4271 261.719 96.7708 261.719 95.8125C261.719 95.1458 262.167 94.6146 263.062 94.2188C263.958 93.8229 264.51 93.5208 264.719 93.3125C265.094 92.9583 265.354 92.125 265.5 90.8125C265.667 89.4792 265.75 87.3333 265.75 84.375C265.75 83.5 265.74 81.8125 265.719 79.3125C265.698 76.8125 265.688 74.7396 265.688 73.0938ZM283.938 73.0938V70.5938C283.938 65.1562 283.844 61.6458 283.656 60.0625C283.469 58.4792 283.146 57.5625 282.688 57.3125C282.208 57.0625 281.542 56.8229 280.688 56.5938C279.312 56.2188 278.625 55.6458 278.625 54.875C278.625 54.3333 278.833 53.8854 279.25 53.5312C279.688 53.1562 280.677 52.7083 282.219 52.1875C283.719 51.6667 285.167 51.2604 286.562 50.9688C287.979 50.6562 289.115 50.5 289.969 50.5C290.615 50.5 291.073 50.7083 291.344 51.125C291.615 51.5208 291.75 52.2292 291.75 53.25C291.75 53.5417 291.729 54.375 291.688 55.75C291.438 63.4792 291.312 71.2917 291.312 79.1875C291.312 84.9583 291.375 88.6458 291.5 90.25C291.646 91.8333 291.896 92.8333 292.25 93.25C292.458 93.4792 293.062 93.7917 294.062 94.1875C295.083 94.5833 295.594 95.1979 295.594 96.0312C295.594 96.8646 295.052 97.4583 293.969 97.8125C292.885 98.1458 290.927 98.3125 288.094 98.3125C284.781 98.3125 282.594 98.1354 281.531 97.7812C280.49 97.4271 279.969 96.7708 279.969 95.8125C279.969 95.1458 280.417 94.6146 281.312 94.2188C282.208 93.8229 282.76 93.5208 282.969 93.3125C283.344 92.9583 283.604 92.125 283.75 90.8125C283.917 89.4792 284 87.3333 284 84.375C284 83.5 283.99 81.8125 283.969 79.3125C283.948 76.8125 283.938 74.7396 283.938 73.0938ZM311.375 68.9062C311.542 68.7604 311.771 68.5521 312.062 68.2812C314.417 66.0729 316.969 64.9688 319.719 64.9688C321.281 64.9688 322.781 65.3125 324.219 66C325.677 66.6667 326.906 67.5833 327.906 68.75C328.906 69.9375 329.615 71.3542 330.031 73C330.448 74.6458 330.656 77.2188 330.656 80.7188V85.125C330.656 85.6667 330.646 86.375 330.625 87.25C330.604 88.125 330.594 88.7396 330.594 89.0938C330.594 90.6354 330.698 91.7292 330.906 92.375C331.135 93 331.521 93.4688 332.062 93.7812C332.271 93.8854 332.552 94 332.906 94.125C333.969 94.5208 334.5 95.0833 334.5 95.8125C334.5 96.75 334 97.3958 333 97.75C332 98.0833 329.833 98.25 326.5 98.25C323.458 98.25 321.417 98.0938 320.375 97.7812C319.354 97.4479 318.844 96.8646 318.844 96.0312C318.844 95.1979 319.385 94.5833 320.469 94.1875C321.031 93.9792 321.438 93.8021 321.688 93.6562C322.188 93.3854 322.542 92.7812 322.75 91.8438C322.958 90.8854 323.062 89.2292 323.062 86.875C323.062 79.9583 322.615 75.625 321.719 73.875C320.844 72.125 319.26 71.25 316.969 71.25C315.802 71.25 314.688 71.6042 313.625 72.3125C312.583 73 311.781 73.9271 311.219 75.0938C310.74 76.0312 310.406 77.3438 310.219 79.0312C310.031 80.7188 309.938 83.7188 309.938 88.0312C309.938 90.1354 310.021 91.5417 310.188 92.25C310.375 92.9375 310.698 93.4062 311.156 93.6562C311.427 93.8021 311.833 93.9792 312.375 94.1875C313.479 94.5833 314.031 95.1979 314.031 96.0312C314.031 96.8646 313.5 97.4583 312.438 97.8125C311.375 98.1458 309.427 98.3125 306.594 98.3125C303.281 98.3125 301.083 98.1354 300 97.7812C298.938 97.4271 298.406 96.7708 298.406 95.8125C298.406 95.0833 298.938 94.5208 300 94.125C300.396 93.9792 300.677 93.8646 300.844 93.7812C301.406 93.4688 301.802 92.9479 302.031 92.2188C302.26 91.4896 302.375 90.3021 302.375 88.6562C302.375 88.2604 302.365 87.5312 302.344 86.4688C302.323 85.4062 302.312 84.5312 302.312 83.8438V80.4688C302.312 77.0521 302.229 74.8229 302.062 73.7812C301.896 72.7396 301.594 72.1042 301.156 71.875C300.823 71.7083 300.312 71.5208 299.625 71.3125C298.312 70.8958 297.656 70.3229 297.656 69.5938C297.656 69.1146 297.854 68.6875 298.25 68.3125C298.667 67.9167 299.344 67.5312 300.281 67.1562C301.885 66.5312 303.448 66.0312 304.969 65.6562C306.49 65.2812 307.615 65.0938 308.344 65.0938C308.948 65.0938 309.385 65.2604 309.656 65.5938C309.927 65.9062 310.062 66.4271 310.062 67.1562V69.3125C310.062 69.4792 310.073 69.5833 310.094 69.625C310.135 69.6667 310.208 69.6979 310.312 69.7188C310.354 69.7188 310.406 69.7083 310.469 69.6875C310.552 69.6458 310.604 69.6146 310.625 69.5938L311.375 68.9062ZM348.812 81.5H348.375C347.167 81.5 346.448 81.5938 346.219 81.7812C345.99 81.9688 345.875 82.4688 345.875 83.2812C345.875 85.9896 346.844 88.3229 348.781 90.2812C350.719 92.2188 353.073 93.1875 355.844 93.1875C357.031 93.1875 358.177 93.0104 359.281 92.6562C360.385 92.3021 361.458 91.7604 362.5 91.0312C362.792 90.8229 363.188 90.5208 363.688 90.125C364.771 89.2292 365.615 88.7812 366.219 88.7812C366.698 88.7812 367.094 88.9375 367.406 89.25C367.719 89.5625 367.875 89.9375 367.875 90.375C367.875 90.8958 367.604 91.5417 367.062 92.3125C366.521 93.0625 365.792 93.8021 364.875 94.5312C362.979 96.0938 361.156 97.2188 359.406 97.9062C357.656 98.5729 355.75 98.9062 353.688 98.9062C349.062 98.9062 345.198 97.3333 342.094 94.1875C339.01 91.0208 337.469 87.1042 337.469 82.4375C337.469 77.3542 339.052 73.1771 342.219 69.9062C345.406 66.6146 349.479 64.9688 354.438 64.9688C358.625 64.9688 361.938 66.1667 364.375 68.5625C366.833 70.9375 368.062 74.1562 368.062 78.2188C368.062 79.5521 367.865 80.4375 367.469 80.875C367.073 81.2917 366.062 81.5 364.438 81.5H348.812ZM348.156 77.7812H358.719C359.552 77.7812 360.104 77.6979 360.375 77.5312C360.646 77.3646 360.781 77.0417 360.781 76.5625C360.781 74.4583 360.073 72.6979 358.656 71.2812C357.26 69.8438 355.49 69.125 353.344 69.125C351.281 69.125 349.573 69.8438 348.219 71.2812C346.865 72.6979 346.188 74.4583 346.188 76.5625C346.188 77.0417 346.312 77.3646 346.562 77.5312C346.812 77.6979 347.344 77.7812 348.156 77.7812ZM377.875 98.125C377.521 98.3958 377.177 98.5938 376.844 98.7188C376.531 98.8438 376.208 98.9062 375.875 98.9062C375.667 98.9062 375.448 98.8542 375.219 98.75C375.01 98.6667 374.781 98.5208 374.531 98.3125C373.823 97.7083 373.156 96.5312 372.531 94.7812C371.906 93.0312 371.594 91.3542 371.594 89.75C371.594 89.0625 371.781 88.4896 372.156 88.0312C372.531 87.5521 372.99 87.3125 373.531 87.3125C374.531 87.3125 375.542 88.1875 376.562 89.9375C377.062 90.8125 377.479 91.4688 377.812 91.9062C378.458 92.7604 379.344 93.4375 380.469 93.9375C381.594 94.4375 382.802 94.6875 384.094 94.6875C385.531 94.6875 386.667 94.3333 387.5 93.625C388.333 92.8958 388.75 91.9271 388.75 90.7188C388.75 88.8854 386.927 87.0938 383.281 85.3438C382.49 84.9688 381.865 84.6667 381.406 84.4375C378.01 82.75 375.719 81.1979 374.531 79.7812C373.344 78.3646 372.75 76.625 372.75 74.5625C372.75 71.7292 373.729 69.4271 375.688 67.6562C377.646 65.8646 380.208 64.9688 383.375 64.9688C384.146 64.9688 384.917 65.0104 385.688 65.0938C386.458 65.1771 387.229 65.3125 388 65.5C388.604 65.2292 389.115 65.0312 389.531 64.9062C389.948 64.7812 390.281 64.7188 390.531 64.7188C391.594 64.7188 392.625 65.5729 393.625 67.2812C394.646 68.9896 395.156 70.7812 395.156 72.6562C395.156 73.4271 394.99 74.0312 394.656 74.4688C394.323 74.8854 393.844 75.0938 393.219 75.0938C392.719 75.0938 392.229 74.8958 391.75 74.5C391.271 74.0833 390.698 73.3438 390.031 72.2812C389.219 70.9479 388.375 70.0208 387.5 69.5C386.646 68.9583 385.615 68.6875 384.406 68.6875C383.135 68.6875 382.115 69.0417 381.344 69.75C380.573 70.4583 380.188 71.3854 380.188 72.5312C380.188 73.5104 380.573 74.3854 381.344 75.1562C382.135 75.9271 383.906 76.9896 386.656 78.3438C386.719 78.3854 386.833 78.4479 387 78.5312C393.042 81.5104 396.062 84.7604 396.062 88.2812C396.062 91.3021 394.896 93.8333 392.562 95.875C390.25 97.8958 387.354 98.9062 383.875 98.9062C383.146 98.9062 382.281 98.8333 381.281 98.6875C380.302 98.5625 379.167 98.375 377.875 98.125ZM418.281 65.875C418.823 65.875 419.188 65.9792 419.375 66.1875C419.583 66.3958 419.688 66.8021 419.688 67.4062V68.1875C419.688 68.75 419.573 69.1562 419.344 69.4062C419.135 69.6562 418.781 69.7812 418.281 69.7812H411.562C411.354 69.7812 411.188 69.875 411.062 70.0625C410.938 70.2292 410.875 70.4792 410.875 70.8125V87C410.875 89.7917 411.104 91.5417 411.562 92.25C412.042 92.9583 412.917 93.3125 414.188 93.3125C414.875 93.3125 415.75 93.1354 416.812 92.7812C417.896 92.4271 418.646 92.25 419.062 92.25C419.542 92.25 419.938 92.3958 420.25 92.6875C420.562 92.9583 420.719 93.3229 420.719 93.7812C420.719 94.9688 419.792 96.125 417.938 97.25C416.104 98.3542 414.021 98.9062 411.688 98.9062C410.333 98.9062 409.115 98.7292 408.031 98.375C406.969 98.0208 406.052 97.4896 405.281 96.7812C404.51 96.0729 403.969 95.125 403.656 93.9375C403.344 92.7292 403.188 90.5 403.188 87.25V69.7812H400.188C399.729 69.7812 399.406 69.6979 399.219 69.5312C399.052 69.3646 398.969 69.0833 398.969 68.6875V67.9062C398.969 67.1979 400.104 65.875 402.375 63.9375C402.938 63.4583 403.385 63.0729 403.719 62.7812C404.01 62.5312 404.427 62.1667 404.969 61.6875C407.219 59.7083 408.76 58.7188 409.594 58.7188C410.031 58.7188 410.375 58.8125 410.625 59C410.875 59.1875 411 59.4479 411 59.7812V65.875H418.281Z" fill="#D99DA1"/>
</svg>
