<svg width="405" height="149" viewBox="0 0 405 149" fill="none" xmlns="http://www.w3.org/2000/svg">
<path d="M57.5637 14.937C58.053 13.8369 58.2117 12.6182 58.0207 11.4294C57.8297 10.2407 57.2971 9.13309 56.4879 8.24159C55.6786 7.35009 54.6276 6.71314 53.4628 6.40832C52.298 6.10349 51.0697 6.14394 49.9275 6.52474C40.913 9.52958 33.7237 15.4461 27.1305 22.0394C20.5025 28.6182 15.2419 36.4436 11.6521 45.0648C8.06228 53.6859 6.21411 62.9323 6.21411 72.271C6.21411 81.6097 8.06228 90.856 11.6521 99.4772C15.2419 108.098 20.5025 115.924 27.1305 122.503C55.1797 150.558 98.5884 148.956 126.315 121.23C132.908 114.637 138.818 107.447 141.823 98.4267C142.192 97.3177 142.24 96.1273 141.962 94.9922C141.684 93.8571 141.091 92.8235 140.252 92.0102C139.413 91.1969 138.361 90.637 137.218 90.3949C136.075 90.1528 134.886 90.2382 133.79 90.6415C111.502 98.8489 86.1407 95.1984 69.0181 78.0696C51.8396 60.8911 48.3506 35.6605 57.5637 14.937Z" fill="#506384"/>
<path d="M97.1256 8.11331L92.2042 36.0757C91.9584 37.4724 90.3772 38.1767 89.1745 37.425L84.3986 34.4401C82.9492 33.5342 81.1049 34.7462 81.3613 36.4361L83.178 48.41C83.3339 49.438 82.6762 50.414 81.6648 50.6553L61.7599 55.4054C59.8982 55.8497 59.6639 58.4037 61.4138 59.1793L81.9516 68.2813C82.8247 68.6682 83.3024 69.6184 83.0922 70.55L81.621 77.07C81.2525 78.7033 82.9341 80.0393 84.4418 79.3112L89.5088 76.864C90.6402 76.3176 91.9892 76.9374 92.3116 78.1517L99.2941 104.449C99.8253 106.45 102.673 106.425 103.169 104.415L109.615 78.2696C109.924 77.0151 111.324 76.3787 112.473 76.9705L117.601 79.6121C118.932 80.2978 120.517 79.3314 120.517 77.8341V68.0971C120.517 67.2894 121.002 66.561 121.748 66.2507L143.624 57.1456C145.382 56.4141 145.22 53.873 143.384 53.3702L121.988 47.5117C121.119 47.2737 120.517 46.4838 120.517 45.5827V33.8774C120.517 32.2428 118.662 31.2985 117.34 32.2599L112.477 35.7967C111.37 36.6021 109.799 36.0816 109.391 34.7743L101.005 7.86488C100.381 5.86312 97.489 6.04832 97.1256 8.11331Z" fill="#506384"/>
<circle cx="95" cy="49" r="2" fill="#506384"/>
<circle cx="106" cy="49" r="2" fill="#506384"/>
<path d="M92 54C94.9643 56.2639 102.714 59.4333 110 54" stroke="#506384" stroke-width="3" stroke-linecap="round"/>
<circle cx="49.4768" cy="93.4768" r="2.47679" fill="#506384"/>
<circle cx="61.4768" cy="93.4768" r="2.47679" fill="#506384"/>
<path d="M42 101C46.6111 104.018 58.6667 108.244 70 101" stroke="#506384" stroke-width="3" stroke-linecap="round"/>
<path d="M194.043 58.1875C192.84 54.7604 191.846 52.2539 191.062 50.668C190.297 49.082 189.577 48.0247 188.902 47.4961C188.757 47.3867 188.21 47.1589 187.262 46.8125C186.332 46.4479 185.867 45.9102 185.867 45.1992C185.867 44.4154 186.305 43.8867 187.18 43.6133C188.073 43.3216 190.324 43.1758 193.934 43.1758C197.525 43.1758 199.758 43.3216 200.633 43.6133C201.508 43.8867 201.945 44.4154 201.945 45.1992C201.945 45.9466 201.234 46.5846 199.812 47.1133C199.721 47.1497 199.639 47.1862 199.566 47.2227C199.129 47.3685 198.801 47.5781 198.582 47.8516C198.363 48.125 198.254 48.4714 198.254 48.8906C198.254 49.5833 198.701 51.224 199.594 53.8125C200.505 56.3828 202.091 60.5482 204.352 66.3086C205.227 68.5326 205.883 70.0547 206.32 70.875C206.758 71.6771 207.113 72.0781 207.387 72.0781C207.66 72.0781 207.979 71.7591 208.344 71.1211C208.727 70.4831 209.355 69.0977 210.23 66.9648L210.723 65.7617C214.66 56.2826 216.629 50.9596 216.629 49.793C216.629 49.1914 216.483 48.6901 216.191 48.2891C215.918 47.888 215.462 47.5508 214.824 47.2773C214.678 47.2044 214.469 47.1042 214.195 46.9766C213.083 46.5208 212.527 45.9284 212.527 45.1992C212.527 44.4154 212.901 43.8867 213.648 43.6133C214.414 43.3216 216.355 43.1758 219.473 43.1758C222.462 43.1758 224.349 43.3216 225.133 43.6133C225.917 43.8867 226.309 44.4154 226.309 45.1992C226.309 45.9284 225.753 46.5299 224.641 47.0039C224.094 47.2409 223.693 47.4414 223.438 47.6055C222.125 48.4622 220.211 52.1354 217.695 58.625C216.711 61.1589 215.918 63.1549 215.316 64.6133L209.902 78.0117C209.647 78.6133 209.31 79.4518 208.891 80.5273C207.742 83.5534 206.749 85.0664 205.91 85.0664C204.944 85.0664 203.057 81.4023 200.25 74.0742C198.609 69.8268 197.251 66.3815 196.176 63.7383L190.297 78.2852C190.096 78.7956 189.814 79.5156 189.449 80.4453C188.264 83.526 187.298 85.0664 186.551 85.0664C185.876 85.0664 185.202 84.2643 184.527 82.6602C184.363 82.2773 184.236 81.9857 184.145 81.7852C181.72 76.5169 178.648 68.9883 174.93 59.1992C173.763 56.1185 172.897 53.8398 172.332 52.3633C171.694 50.8138 171.129 49.6654 170.637 48.918C170.145 48.1523 169.598 47.5964 168.996 47.25C168.832 47.1589 168.559 47.0586 168.176 46.9492C166.973 46.5664 166.371 45.9831 166.371 45.1992C166.371 44.4154 166.809 43.8867 167.684 43.6133C168.577 43.3216 170.828 43.1758 174.438 43.1758C178.029 43.1758 180.262 43.3216 181.137 43.6133C182.012 43.8867 182.449 44.4154 182.449 45.1992C182.449 45.9466 181.711 46.5938 180.234 47.1406L180.07 47.1953C179.578 47.3776 179.223 47.6055 179.004 47.8789C178.803 48.1341 178.703 48.4714 178.703 48.8906C178.703 49.5286 179.095 50.9779 179.879 53.2383C180.663 55.4805 182.267 59.7005 184.691 65.8984C185.767 68.651 186.487 70.3737 186.852 71.0664C187.234 71.7409 187.581 72.0781 187.891 72.0781C188.401 72.0781 189.714 69.3346 191.828 63.8477C192.74 61.4961 193.478 59.6094 194.043 58.1875ZM230.109 69.5625H229.727C228.669 69.5625 228.04 69.6445 227.84 69.8086C227.639 69.9727 227.539 70.4102 227.539 71.1211C227.539 73.4909 228.387 75.5326 230.082 77.2461C231.777 78.9414 233.837 79.7891 236.262 79.7891C237.301 79.7891 238.303 79.6341 239.27 79.3242C240.236 79.0143 241.174 78.5404 242.086 77.9023C242.341 77.7201 242.688 77.4557 243.125 77.1094C244.073 76.3255 244.811 75.9336 245.34 75.9336C245.759 75.9336 246.105 76.0703 246.379 76.3438C246.652 76.6172 246.789 76.9453 246.789 77.3281C246.789 77.7839 246.552 78.349 246.078 79.0234C245.604 79.6797 244.966 80.3268 244.164 80.9648C242.505 82.332 240.91 83.3164 239.379 83.918C237.848 84.5013 236.18 84.793 234.375 84.793C230.328 84.793 226.947 83.4167 224.23 80.6641C221.533 77.8932 220.184 74.4661 220.184 70.3828C220.184 65.9349 221.569 62.2799 224.34 59.418C227.129 56.5378 230.693 55.0977 235.031 55.0977C238.695 55.0977 241.594 56.1458 243.727 58.2422C245.878 60.3203 246.953 63.1367 246.953 66.6914C246.953 67.8581 246.78 68.6328 246.434 69.0156C246.087 69.3802 245.203 69.5625 243.781 69.5625H230.109ZM229.535 66.3086H238.777C239.507 66.3086 239.99 66.2357 240.227 66.0898C240.464 65.944 240.582 65.6615 240.582 65.2422C240.582 63.401 239.962 61.8607 238.723 60.6211C237.501 59.3633 235.952 58.7344 234.074 58.7344C232.27 58.7344 230.775 59.3633 229.59 60.6211C228.405 61.8607 227.812 63.401 227.812 65.2422C227.812 65.6615 227.922 65.944 228.141 66.0898C228.359 66.2357 228.824 66.3086 229.535 66.3086ZM253.352 62.207V60.0195C253.352 55.2617 253.27 52.1901 253.105 50.8047C252.941 49.4193 252.659 48.6172 252.258 48.3984C251.839 48.1797 251.255 47.9701 250.508 47.7695C249.305 47.4414 248.703 46.9401 248.703 46.2656C248.703 45.7917 248.885 45.3997 249.25 45.0898C249.633 44.7617 250.499 44.3698 251.848 43.9141C253.16 43.4583 254.427 43.1029 255.648 42.8477C256.888 42.5742 257.882 42.4375 258.629 42.4375C259.194 42.4375 259.595 42.6198 259.832 42.9844C260.069 43.3307 260.188 43.9505 260.188 44.8438C260.188 45.099 260.169 45.8281 260.133 47.0312C259.914 53.7943 259.805 60.6302 259.805 67.5391C259.805 72.5885 259.859 75.8151 259.969 77.2188C260.096 78.6042 260.315 79.4792 260.625 79.8438C260.807 80.0443 261.336 80.3177 262.211 80.6641C263.104 81.0104 263.551 81.5482 263.551 82.2773C263.551 83.0065 263.077 83.526 262.129 83.8359C261.181 84.1276 259.467 84.2734 256.988 84.2734C254.09 84.2734 252.176 84.1185 251.246 83.8086C250.335 83.4987 249.879 82.9245 249.879 82.0859C249.879 81.5026 250.271 81.0378 251.055 80.6914C251.839 80.3451 252.322 80.0807 252.504 79.8984C252.832 79.5885 253.06 78.8594 253.188 77.7109C253.333 76.5443 253.406 74.6667 253.406 72.0781C253.406 71.3125 253.397 69.8359 253.379 67.6484C253.361 65.4609 253.352 63.6471 253.352 62.207ZM269.32 62.207V60.0195C269.32 55.2617 269.238 52.1901 269.074 50.8047C268.91 49.4193 268.628 48.6172 268.227 48.3984C267.807 48.1797 267.224 47.9701 266.477 47.7695C265.273 47.4414 264.672 46.9401 264.672 46.2656C264.672 45.7917 264.854 45.3997 265.219 45.0898C265.602 44.7617 266.467 44.3698 267.816 43.9141C269.129 43.4583 270.396 43.1029 271.617 42.8477C272.857 42.5742 273.85 42.4375 274.598 42.4375C275.163 42.4375 275.564 42.6198 275.801 42.9844C276.038 43.3307 276.156 43.9505 276.156 44.8438C276.156 45.099 276.138 45.8281 276.102 47.0312C275.883 53.7943 275.773 60.6302 275.773 67.5391C275.773 72.5885 275.828 75.8151 275.938 77.2188C276.065 78.6042 276.284 79.4792 276.594 79.8438C276.776 80.0443 277.305 80.3177 278.18 80.6641C279.073 81.0104 279.52 81.5482 279.52 82.2773C279.52 83.0065 279.046 83.526 278.098 83.8359C277.15 84.1276 275.436 84.2734 272.957 84.2734C270.059 84.2734 268.145 84.1185 267.215 83.8086C266.303 83.4987 265.848 82.9245 265.848 82.0859C265.848 81.5026 266.24 81.0378 267.023 80.6914C267.807 80.3451 268.29 80.0807 268.473 79.8984C268.801 79.5885 269.029 78.8594 269.156 77.7109C269.302 76.5443 269.375 74.6667 269.375 72.0781C269.375 71.3125 269.366 69.8359 269.348 67.6484C269.329 65.4609 269.32 63.6471 269.32 62.207ZM293.328 58.543C293.474 58.4154 293.674 58.2331 293.93 57.9961C295.99 56.0638 298.223 55.0977 300.629 55.0977C301.996 55.0977 303.309 55.3984 304.566 56C305.842 56.5833 306.918 57.3854 307.793 58.4062C308.668 59.4453 309.288 60.6849 309.652 62.125C310.017 63.5651 310.199 65.8164 310.199 68.8789V72.7344C310.199 73.2083 310.19 73.8281 310.172 74.5938C310.154 75.3594 310.145 75.8971 310.145 76.207C310.145 77.556 310.236 78.513 310.418 79.0781C310.618 79.625 310.956 80.0352 311.43 80.3086C311.612 80.3997 311.858 80.5 312.168 80.6094C313.098 80.9557 313.562 81.4479 313.562 82.0859C313.562 82.9062 313.125 83.4714 312.25 83.7812C311.375 84.0729 309.479 84.2188 306.562 84.2188C303.901 84.2188 302.115 84.082 301.203 83.8086C300.31 83.5169 299.863 83.0065 299.863 82.2773C299.863 81.5482 300.337 81.0104 301.285 80.6641C301.777 80.4818 302.133 80.3268 302.352 80.1992C302.789 79.9622 303.099 79.4336 303.281 78.6133C303.464 77.7747 303.555 76.3255 303.555 74.2656C303.555 68.2135 303.163 64.4219 302.379 62.8906C301.613 61.3594 300.228 60.5938 298.223 60.5938C297.202 60.5938 296.227 60.9036 295.297 61.5234C294.385 62.125 293.684 62.9362 293.191 63.957C292.772 64.7773 292.48 65.9258 292.316 67.4023C292.152 68.8789 292.07 71.5039 292.07 75.2773C292.07 77.1185 292.143 78.349 292.289 78.9688C292.453 79.5703 292.736 79.9805 293.137 80.1992C293.374 80.3268 293.729 80.4818 294.203 80.6641C295.169 81.0104 295.652 81.5482 295.652 82.2773C295.652 83.0065 295.188 83.526 294.258 83.8359C293.328 84.1276 291.624 84.2734 289.145 84.2734C286.246 84.2734 284.323 84.1185 283.375 83.8086C282.445 83.4987 281.98 82.9245 281.98 82.0859C281.98 81.4479 282.445 80.9557 283.375 80.6094C283.721 80.4818 283.967 80.3815 284.113 80.3086C284.605 80.0352 284.952 79.5794 285.152 78.9414C285.353 78.3034 285.453 77.2643 285.453 75.8242C285.453 75.4779 285.444 74.8398 285.426 73.9102C285.408 72.9805 285.398 72.2148 285.398 71.6133V68.6602C285.398 65.6706 285.326 63.7201 285.18 62.8086C285.034 61.8971 284.77 61.3411 284.387 61.1406C284.095 60.9948 283.648 60.8307 283.047 60.6484C281.898 60.2839 281.324 59.7826 281.324 59.1445C281.324 58.7253 281.497 58.3516 281.844 58.0234C282.208 57.6771 282.801 57.3398 283.621 57.0117C285.025 56.4648 286.392 56.0273 287.723 55.6992C289.053 55.3711 290.038 55.207 290.676 55.207C291.204 55.207 291.587 55.3529 291.824 55.6445C292.061 55.918 292.18 56.3737 292.18 57.0117V58.8984C292.18 59.0443 292.189 59.1354 292.207 59.1719C292.243 59.2083 292.307 59.2357 292.398 59.2539C292.435 59.2539 292.48 59.2448 292.535 59.2266C292.608 59.1901 292.654 59.1628 292.672 59.1445L293.328 58.543ZM326.086 69.5625H325.703C324.646 69.5625 324.017 69.6445 323.816 69.8086C323.616 69.9727 323.516 70.4102 323.516 71.1211C323.516 73.4909 324.363 75.5326 326.059 77.2461C327.754 78.9414 329.814 79.7891 332.238 79.7891C333.277 79.7891 334.28 79.6341 335.246 79.3242C336.212 79.0143 337.151 78.5404 338.062 77.9023C338.318 77.7201 338.664 77.4557 339.102 77.1094C340.049 76.3255 340.788 75.9336 341.316 75.9336C341.736 75.9336 342.082 76.0703 342.355 76.3438C342.629 76.6172 342.766 76.9453 342.766 77.3281C342.766 77.7839 342.529 78.349 342.055 79.0234C341.581 79.6797 340.943 80.3268 340.141 80.9648C338.482 82.332 336.887 83.3164 335.355 83.918C333.824 84.5013 332.156 84.793 330.352 84.793C326.305 84.793 322.923 83.4167 320.207 80.6641C317.509 77.8932 316.16 74.4661 316.16 70.3828C316.16 65.9349 317.546 62.2799 320.316 59.418C323.105 56.5378 326.669 55.0977 331.008 55.0977C334.672 55.0977 337.57 56.1458 339.703 58.2422C341.854 60.3203 342.93 63.1367 342.93 66.6914C342.93 67.8581 342.757 68.6328 342.41 69.0156C342.064 69.3802 341.18 69.5625 339.758 69.5625H326.086ZM325.512 66.3086H334.754C335.483 66.3086 335.966 66.2357 336.203 66.0898C336.44 65.944 336.559 65.6615 336.559 65.2422C336.559 63.401 335.939 61.8607 334.699 60.6211C333.478 59.3633 331.928 58.7344 330.051 58.7344C328.246 58.7344 326.751 59.3633 325.566 60.6211C324.382 61.8607 323.789 63.401 323.789 65.2422C323.789 65.6615 323.898 65.944 324.117 66.0898C324.336 66.2357 324.801 66.3086 325.512 66.3086ZM351.516 84.1094C351.206 84.3464 350.905 84.5195 350.613 84.6289C350.34 84.7383 350.057 84.793 349.766 84.793C349.583 84.793 349.392 84.7474 349.191 84.6562C349.009 84.5833 348.809 84.4557 348.59 84.2734C347.97 83.7448 347.387 82.7148 346.84 81.1836C346.293 79.6523 346.02 78.1849 346.02 76.7812C346.02 76.1797 346.184 75.6784 346.512 75.2773C346.84 74.8581 347.241 74.6484 347.715 74.6484C348.59 74.6484 349.474 75.4141 350.367 76.9453C350.805 77.7109 351.169 78.2852 351.461 78.668C352.026 79.4154 352.801 80.0078 353.785 80.4453C354.77 80.8828 355.827 81.1016 356.957 81.1016C358.215 81.1016 359.208 80.7917 359.938 80.1719C360.667 79.5339 361.031 78.6862 361.031 77.6289C361.031 76.0247 359.436 74.457 356.246 72.9258C355.553 72.5977 355.007 72.3333 354.605 72.1328C351.634 70.6562 349.629 69.2982 348.59 68.0586C347.551 66.819 347.031 65.2969 347.031 63.4922C347.031 61.013 347.888 58.9987 349.602 57.4492C351.315 55.8815 353.557 55.0977 356.328 55.0977C357.003 55.0977 357.677 55.1341 358.352 55.207C359.026 55.2799 359.701 55.3984 360.375 55.5625C360.904 55.3255 361.35 55.1523 361.715 55.043C362.079 54.9336 362.371 54.8789 362.59 54.8789C363.52 54.8789 364.422 55.6263 365.297 57.1211C366.19 58.6159 366.637 60.1836 366.637 61.8242C366.637 62.4987 366.491 63.0273 366.199 63.4102C365.908 63.7747 365.488 63.957 364.941 63.957C364.504 63.957 364.076 63.7839 363.656 63.4375C363.237 63.0729 362.736 62.4258 362.152 61.4961C361.441 60.3294 360.703 59.5182 359.938 59.0625C359.19 58.5885 358.288 58.3516 357.23 58.3516C356.118 58.3516 355.225 58.6615 354.551 59.2812C353.876 59.901 353.539 60.7122 353.539 61.7148C353.539 62.5716 353.876 63.3372 354.551 64.0117C355.243 64.6862 356.793 65.6159 359.199 66.8008C359.254 66.8372 359.354 66.8919 359.5 66.9648C364.786 69.5716 367.43 72.4154 367.43 75.4961C367.43 78.1393 366.409 80.3542 364.367 82.1406C362.344 83.9089 359.81 84.793 356.766 84.793C356.128 84.793 355.371 84.7292 354.496 84.6016C353.639 84.4922 352.646 84.3281 351.516 84.1094ZM386.871 55.8906C387.345 55.8906 387.664 55.9818 387.828 56.1641C388.01 56.3464 388.102 56.7018 388.102 57.2305V57.9141C388.102 58.4062 388.001 58.7617 387.801 58.9805C387.618 59.1992 387.309 59.3086 386.871 59.3086H380.992C380.81 59.3086 380.664 59.3906 380.555 59.5547C380.445 59.7005 380.391 59.9193 380.391 60.2109V74.375C380.391 76.8177 380.591 78.349 380.992 78.9688C381.411 79.5885 382.177 79.8984 383.289 79.8984C383.891 79.8984 384.656 79.7435 385.586 79.4336C386.534 79.1237 387.19 78.9688 387.555 78.9688C387.974 78.9688 388.32 79.0964 388.594 79.3516C388.867 79.5885 389.004 79.9076 389.004 80.3086C389.004 81.3477 388.193 82.3594 386.57 83.3438C384.966 84.3099 383.143 84.793 381.102 84.793C379.917 84.793 378.85 84.638 377.902 84.3281C376.973 84.0182 376.171 83.5534 375.496 82.9336C374.822 82.3138 374.348 81.4844 374.074 80.4453C373.801 79.388 373.664 77.4375 373.664 74.5938V59.3086H371.039C370.638 59.3086 370.355 59.2357 370.191 59.0898C370.046 58.944 369.973 58.6979 369.973 58.3516V57.668C369.973 57.0482 370.966 55.8906 372.953 54.1953C373.445 53.776 373.837 53.4388 374.129 53.1836C374.384 52.9648 374.749 52.6458 375.223 52.2266C377.191 50.4948 378.54 49.6289 379.27 49.6289C379.652 49.6289 379.953 49.7109 380.172 49.875C380.391 50.0391 380.5 50.2669 380.5 50.5586V55.8906H386.871Z" fill="#506384"/>
</svg>
