<svg width="400" height="149" viewBox="0 0 400 149" fill="none" xmlns="http://www.w3.org/2000/svg">
<path d="M57.5637 14.937C58.053 13.8369 58.2117 12.6182 58.0207 11.4294C57.8297 10.2407 57.2971 9.13309 56.4879 8.24159C55.6786 7.35009 54.6276 6.71314 53.4628 6.40832C52.298 6.10349 51.0697 6.14394 49.9275 6.52474C40.913 9.52958 33.7237 15.4461 27.1305 22.0394C20.5025 28.6182 15.2419 36.4436 11.6521 45.0648C8.06228 53.6859 6.21411 62.9323 6.21411 72.271C6.21411 81.6097 8.06228 90.856 11.6521 99.4772C15.2419 108.098 20.5025 115.924 27.1305 122.503C55.1797 150.558 98.5884 148.956 126.315 121.23C132.908 114.637 138.818 107.447 141.823 98.4267C142.192 97.3177 142.24 96.1273 141.962 94.9922C141.684 93.8571 141.091 92.8235 140.252 92.0102C139.413 91.1969 138.361 90.637 137.218 90.3949C136.075 90.1528 134.886 90.2382 133.79 90.6415C111.502 98.8489 86.1407 95.1984 69.0181 78.0696C51.8396 60.8911 48.3506 35.6605 57.5637 14.937Z" fill="url(#paint0_linear_222_823)"/>
<path d="M97.1256 8.11331L92.2042 36.0757C91.9584 37.4724 90.3772 38.1767 89.1745 37.425L84.3986 34.4401C82.9492 33.5342 81.1049 34.7462 81.3613 36.4361L83.178 48.41C83.3339 49.438 82.6762 50.414 81.6648 50.6553L61.7599 55.4054C59.8982 55.8497 59.6639 58.4037 61.4138 59.1793L81.9516 68.2813C82.8247 68.6682 83.3024 69.6184 83.0922 70.55L81.621 77.07C81.2525 78.7033 82.9341 80.0393 84.4418 79.3112L89.5088 76.864C90.6402 76.3176 91.9892 76.9374 92.3116 78.1517L99.2941 104.449C99.8253 106.45 102.673 106.425 103.169 104.415L109.615 78.2696C109.924 77.0151 111.324 76.3787 112.473 76.9705L117.601 79.6121C118.932 80.2978 120.517 79.3314 120.517 77.8341V68.0971C120.517 67.2894 121.002 66.561 121.748 66.2507L143.624 57.1456C145.382 56.4141 145.22 53.873 143.384 53.3702L121.988 47.5117C121.119 47.2737 120.517 46.4838 120.517 45.5827V33.8774C120.517 32.2428 118.662 31.2985 117.34 32.2599L112.477 35.7967C111.37 36.6021 109.799 36.0816 109.391 34.7743L101.005 7.86488C100.381 5.86312 97.489 6.04832 97.1256 8.11331Z" fill="url(#paint1_linear_222_823)"/>
<circle cx="95" cy="49" r="2" fill="#506384"/>
<circle cx="106" cy="49" r="2" fill="#506384"/>
<path d="M92 54C94.9643 56.2639 102.714 59.4333 110 54" stroke="#506384" stroke-width="3" stroke-linecap="round"/>
<circle cx="49.4768" cy="93.4768" r="2.47679" fill="#506384"/>
<circle cx="61.4768" cy="93.4768" r="2.47679" fill="#506384"/>
<path d="M42 101C46.6111 104.018 58.6667 108.244 70 101" stroke="#506384" stroke-width="3" stroke-linecap="round"/>
<path d="M186.043 70.1875C184.84 66.7604 183.846 64.2539 183.062 62.668C182.297 61.082 181.577 60.0247 180.902 59.4961C180.757 59.3867 180.21 59.1589 179.262 58.8125C178.332 58.4479 177.867 57.9102 177.867 57.1992C177.867 56.4154 178.305 55.8867 179.18 55.6133C180.073 55.3216 182.324 55.1758 185.934 55.1758C189.525 55.1758 191.758 55.3216 192.633 55.6133C193.508 55.8867 193.945 56.4154 193.945 57.1992C193.945 57.9466 193.234 58.5846 191.812 59.1133C191.721 59.1497 191.639 59.1862 191.566 59.2227C191.129 59.3685 190.801 59.5781 190.582 59.8516C190.363 60.125 190.254 60.4714 190.254 60.8906C190.254 61.5833 190.701 63.224 191.594 65.8125C192.505 68.3828 194.091 72.5482 196.352 78.3086C197.227 80.5326 197.883 82.0547 198.32 82.875C198.758 83.6771 199.113 84.0781 199.387 84.0781C199.66 84.0781 199.979 83.7591 200.344 83.1211C200.727 82.4831 201.355 81.0977 202.23 78.9648L202.723 77.7617C206.66 68.2826 208.629 62.9596 208.629 61.793C208.629 61.1914 208.483 60.6901 208.191 60.2891C207.918 59.888 207.462 59.5508 206.824 59.2773C206.678 59.2044 206.469 59.1042 206.195 58.9766C205.083 58.5208 204.527 57.9284 204.527 57.1992C204.527 56.4154 204.901 55.8867 205.648 55.6133C206.414 55.3216 208.355 55.1758 211.473 55.1758C214.462 55.1758 216.349 55.3216 217.133 55.6133C217.917 55.8867 218.309 56.4154 218.309 57.1992C218.309 57.9284 217.753 58.5299 216.641 59.0039C216.094 59.2409 215.693 59.4414 215.438 59.6055C214.125 60.4622 212.211 64.1354 209.695 70.625C208.711 73.1589 207.918 75.1549 207.316 76.6133L201.902 90.0117C201.647 90.6133 201.31 91.4518 200.891 92.5273C199.742 95.5534 198.749 97.0664 197.91 97.0664C196.944 97.0664 195.057 93.4023 192.25 86.0742C190.609 81.8268 189.251 78.3815 188.176 75.7383L182.297 90.2852C182.096 90.7956 181.814 91.5156 181.449 92.4453C180.264 95.526 179.298 97.0664 178.551 97.0664C177.876 97.0664 177.202 96.2643 176.527 94.6602C176.363 94.2773 176.236 93.9857 176.145 93.7852C173.72 88.5169 170.648 80.9883 166.93 71.1992C165.763 68.1185 164.897 65.8398 164.332 64.3633C163.694 62.8138 163.129 61.6654 162.637 60.918C162.145 60.1523 161.598 59.5964 160.996 59.25C160.832 59.1589 160.559 59.0586 160.176 58.9492C158.973 58.5664 158.371 57.9831 158.371 57.1992C158.371 56.4154 158.809 55.8867 159.684 55.6133C160.577 55.3216 162.828 55.1758 166.438 55.1758C170.029 55.1758 172.262 55.3216 173.137 55.6133C174.012 55.8867 174.449 56.4154 174.449 57.1992C174.449 57.9466 173.711 58.5938 172.234 59.1406L172.07 59.1953C171.578 59.3776 171.223 59.6055 171.004 59.8789C170.803 60.1341 170.703 60.4714 170.703 60.8906C170.703 61.5286 171.095 62.9779 171.879 65.2383C172.663 67.4805 174.267 71.7005 176.691 77.8984C177.767 80.651 178.487 82.3737 178.852 83.0664C179.234 83.7409 179.581 84.0781 179.891 84.0781C180.401 84.0781 181.714 81.3346 183.828 75.8477C184.74 73.4961 185.478 71.6094 186.043 70.1875ZM222.109 81.5625H221.727C220.669 81.5625 220.04 81.6445 219.84 81.8086C219.639 81.9727 219.539 82.4102 219.539 83.1211C219.539 85.4909 220.387 87.5326 222.082 89.2461C223.777 90.9414 225.837 91.7891 228.262 91.7891C229.301 91.7891 230.303 91.6341 231.27 91.3242C232.236 91.0143 233.174 90.5404 234.086 89.9023C234.341 89.7201 234.688 89.4557 235.125 89.1094C236.073 88.3255 236.811 87.9336 237.34 87.9336C237.759 87.9336 238.105 88.0703 238.379 88.3438C238.652 88.6172 238.789 88.9453 238.789 89.3281C238.789 89.7839 238.552 90.349 238.078 91.0234C237.604 91.6797 236.966 92.3268 236.164 92.9648C234.505 94.332 232.91 95.3164 231.379 95.918C229.848 96.5013 228.18 96.793 226.375 96.793C222.328 96.793 218.947 95.4167 216.23 92.6641C213.533 89.8932 212.184 86.4661 212.184 82.3828C212.184 77.9349 213.569 74.2799 216.34 71.418C219.129 68.5378 222.693 67.0977 227.031 67.0977C230.695 67.0977 233.594 68.1458 235.727 70.2422C237.878 72.3203 238.953 75.1367 238.953 78.6914C238.953 79.8581 238.78 80.6328 238.434 81.0156C238.087 81.3802 237.203 81.5625 235.781 81.5625H222.109ZM221.535 78.3086H230.777C231.507 78.3086 231.99 78.2357 232.227 78.0898C232.464 77.944 232.582 77.6615 232.582 77.2422C232.582 75.401 231.962 73.8607 230.723 72.6211C229.501 71.3633 227.952 70.7344 226.074 70.7344C224.27 70.7344 222.775 71.3633 221.59 72.6211C220.405 73.8607 219.812 75.401 219.812 77.2422C219.812 77.6615 219.922 77.944 220.141 78.0898C220.359 78.2357 220.824 78.3086 221.535 78.3086ZM245.352 74.207V72.0195C245.352 67.2617 245.27 64.1901 245.105 62.8047C244.941 61.4193 244.659 60.6172 244.258 60.3984C243.839 60.1797 243.255 59.9701 242.508 59.7695C241.305 59.4414 240.703 58.9401 240.703 58.2656C240.703 57.7917 240.885 57.3997 241.25 57.0898C241.633 56.7617 242.499 56.3698 243.848 55.9141C245.16 55.4583 246.427 55.1029 247.648 54.8477C248.888 54.5742 249.882 54.4375 250.629 54.4375C251.194 54.4375 251.595 54.6198 251.832 54.9844C252.069 55.3307 252.188 55.9505 252.188 56.8438C252.188 57.099 252.169 57.8281 252.133 59.0312C251.914 65.7943 251.805 72.6302 251.805 79.5391C251.805 84.5885 251.859 87.8151 251.969 89.2188C252.096 90.6042 252.315 91.4792 252.625 91.8438C252.807 92.0443 253.336 92.3177 254.211 92.6641C255.104 93.0104 255.551 93.5482 255.551 94.2773C255.551 95.0065 255.077 95.526 254.129 95.8359C253.181 96.1276 251.467 96.2734 248.988 96.2734C246.09 96.2734 244.176 96.1185 243.246 95.8086C242.335 95.4987 241.879 94.9245 241.879 94.0859C241.879 93.5026 242.271 93.0378 243.055 92.6914C243.839 92.3451 244.322 92.0807 244.504 91.8984C244.832 91.5885 245.06 90.8594 245.188 89.7109C245.333 88.5443 245.406 86.6667 245.406 84.0781C245.406 83.3125 245.397 81.8359 245.379 79.6484C245.361 77.4609 245.352 75.6471 245.352 74.207ZM261.32 74.207V72.0195C261.32 67.2617 261.238 64.1901 261.074 62.8047C260.91 61.4193 260.628 60.6172 260.227 60.3984C259.807 60.1797 259.224 59.9701 258.477 59.7695C257.273 59.4414 256.672 58.9401 256.672 58.2656C256.672 57.7917 256.854 57.3997 257.219 57.0898C257.602 56.7617 258.467 56.3698 259.816 55.9141C261.129 55.4583 262.396 55.1029 263.617 54.8477C264.857 54.5742 265.85 54.4375 266.598 54.4375C267.163 54.4375 267.564 54.6198 267.801 54.9844C268.038 55.3307 268.156 55.9505 268.156 56.8438C268.156 57.099 268.138 57.8281 268.102 59.0312C267.883 65.7943 267.773 72.6302 267.773 79.5391C267.773 84.5885 267.828 87.8151 267.938 89.2188C268.065 90.6042 268.284 91.4792 268.594 91.8438C268.776 92.0443 269.305 92.3177 270.18 92.6641C271.073 93.0104 271.52 93.5482 271.52 94.2773C271.52 95.0065 271.046 95.526 270.098 95.8359C269.15 96.1276 267.436 96.2734 264.957 96.2734C262.059 96.2734 260.145 96.1185 259.215 95.8086C258.303 95.4987 257.848 94.9245 257.848 94.0859C257.848 93.5026 258.24 93.0378 259.023 92.6914C259.807 92.3451 260.29 92.0807 260.473 91.8984C260.801 91.5885 261.029 90.8594 261.156 89.7109C261.302 88.5443 261.375 86.6667 261.375 84.0781C261.375 83.3125 261.366 81.8359 261.348 79.6484C261.329 77.4609 261.32 75.6471 261.32 74.207ZM285.328 70.543C285.474 70.4154 285.674 70.2331 285.93 69.9961C287.99 68.0638 290.223 67.0977 292.629 67.0977C293.996 67.0977 295.309 67.3984 296.566 68C297.842 68.5833 298.918 69.3854 299.793 70.4062C300.668 71.4453 301.288 72.6849 301.652 74.125C302.017 75.5651 302.199 77.8164 302.199 80.8789V84.7344C302.199 85.2083 302.19 85.8281 302.172 86.5938C302.154 87.3594 302.145 87.8971 302.145 88.207C302.145 89.556 302.236 90.513 302.418 91.0781C302.618 91.625 302.956 92.0352 303.43 92.3086C303.612 92.3997 303.858 92.5 304.168 92.6094C305.098 92.9557 305.562 93.4479 305.562 94.0859C305.562 94.9062 305.125 95.4714 304.25 95.7812C303.375 96.0729 301.479 96.2188 298.562 96.2188C295.901 96.2188 294.115 96.082 293.203 95.8086C292.31 95.5169 291.863 95.0065 291.863 94.2773C291.863 93.5482 292.337 93.0104 293.285 92.6641C293.777 92.4818 294.133 92.3268 294.352 92.1992C294.789 91.9622 295.099 91.4336 295.281 90.6133C295.464 89.7747 295.555 88.3255 295.555 86.2656C295.555 80.2135 295.163 76.4219 294.379 74.8906C293.613 73.3594 292.228 72.5938 290.223 72.5938C289.202 72.5938 288.227 72.9036 287.297 73.5234C286.385 74.125 285.684 74.9362 285.191 75.957C284.772 76.7773 284.48 77.9258 284.316 79.4023C284.152 80.8789 284.07 83.5039 284.07 87.2773C284.07 89.1185 284.143 90.349 284.289 90.9688C284.453 91.5703 284.736 91.9805 285.137 92.1992C285.374 92.3268 285.729 92.4818 286.203 92.6641C287.169 93.0104 287.652 93.5482 287.652 94.2773C287.652 95.0065 287.188 95.526 286.258 95.8359C285.328 96.1276 283.624 96.2734 281.145 96.2734C278.246 96.2734 276.323 96.1185 275.375 95.8086C274.445 95.4987 273.98 94.9245 273.98 94.0859C273.98 93.4479 274.445 92.9557 275.375 92.6094C275.721 92.4818 275.967 92.3815 276.113 92.3086C276.605 92.0352 276.952 91.5794 277.152 90.9414C277.353 90.3034 277.453 89.2643 277.453 87.8242C277.453 87.4779 277.444 86.8398 277.426 85.9102C277.408 84.9805 277.398 84.2148 277.398 83.6133V80.6602C277.398 77.6706 277.326 75.7201 277.18 74.8086C277.034 73.8971 276.77 73.3411 276.387 73.1406C276.095 72.9948 275.648 72.8307 275.047 72.6484C273.898 72.2839 273.324 71.7826 273.324 71.1445C273.324 70.7253 273.497 70.3516 273.844 70.0234C274.208 69.6771 274.801 69.3398 275.621 69.0117C277.025 68.4648 278.392 68.0273 279.723 67.6992C281.053 67.3711 282.038 67.207 282.676 67.207C283.204 67.207 283.587 67.3529 283.824 67.6445C284.061 67.918 284.18 68.3737 284.18 69.0117V70.8984C284.18 71.0443 284.189 71.1354 284.207 71.1719C284.243 71.2083 284.307 71.2357 284.398 71.2539C284.435 71.2539 284.48 71.2448 284.535 71.2266C284.608 71.1901 284.654 71.1628 284.672 71.1445L285.328 70.543ZM318.086 81.5625H317.703C316.646 81.5625 316.017 81.6445 315.816 81.8086C315.616 81.9727 315.516 82.4102 315.516 83.1211C315.516 85.4909 316.363 87.5326 318.059 89.2461C319.754 90.9414 321.814 91.7891 324.238 91.7891C325.277 91.7891 326.28 91.6341 327.246 91.3242C328.212 91.0143 329.151 90.5404 330.062 89.9023C330.318 89.7201 330.664 89.4557 331.102 89.1094C332.049 88.3255 332.788 87.9336 333.316 87.9336C333.736 87.9336 334.082 88.0703 334.355 88.3438C334.629 88.6172 334.766 88.9453 334.766 89.3281C334.766 89.7839 334.529 90.349 334.055 91.0234C333.581 91.6797 332.943 92.3268 332.141 92.9648C330.482 94.332 328.887 95.3164 327.355 95.918C325.824 96.5013 324.156 96.793 322.352 96.793C318.305 96.793 314.923 95.4167 312.207 92.6641C309.509 89.8932 308.16 86.4661 308.16 82.3828C308.16 77.9349 309.546 74.2799 312.316 71.418C315.105 68.5378 318.669 67.0977 323.008 67.0977C326.672 67.0977 329.57 68.1458 331.703 70.2422C333.854 72.3203 334.93 75.1367 334.93 78.6914C334.93 79.8581 334.757 80.6328 334.41 81.0156C334.064 81.3802 333.18 81.5625 331.758 81.5625H318.086ZM317.512 78.3086H326.754C327.483 78.3086 327.966 78.2357 328.203 78.0898C328.44 77.944 328.559 77.6615 328.559 77.2422C328.559 75.401 327.939 73.8607 326.699 72.6211C325.478 71.3633 323.928 70.7344 322.051 70.7344C320.246 70.7344 318.751 71.3633 317.566 72.6211C316.382 73.8607 315.789 75.401 315.789 77.2422C315.789 77.6615 315.898 77.944 316.117 78.0898C316.336 78.2357 316.801 78.3086 317.512 78.3086ZM343.516 96.1094C343.206 96.3464 342.905 96.5195 342.613 96.6289C342.34 96.7383 342.057 96.793 341.766 96.793C341.583 96.793 341.392 96.7474 341.191 96.6562C341.009 96.5833 340.809 96.4557 340.59 96.2734C339.97 95.7448 339.387 94.7148 338.84 93.1836C338.293 91.6523 338.02 90.1849 338.02 88.7812C338.02 88.1797 338.184 87.6784 338.512 87.2773C338.84 86.8581 339.241 86.6484 339.715 86.6484C340.59 86.6484 341.474 87.4141 342.367 88.9453C342.805 89.7109 343.169 90.2852 343.461 90.668C344.026 91.4154 344.801 92.0078 345.785 92.4453C346.77 92.8828 347.827 93.1016 348.957 93.1016C350.215 93.1016 351.208 92.7917 351.938 92.1719C352.667 91.5339 353.031 90.6862 353.031 89.6289C353.031 88.0247 351.436 86.457 348.246 84.9258C347.553 84.5977 347.007 84.3333 346.605 84.1328C343.634 82.6562 341.629 81.2982 340.59 80.0586C339.551 78.819 339.031 77.2969 339.031 75.4922C339.031 73.013 339.888 70.9987 341.602 69.4492C343.315 67.8815 345.557 67.0977 348.328 67.0977C349.003 67.0977 349.677 67.1341 350.352 67.207C351.026 67.2799 351.701 67.3984 352.375 67.5625C352.904 67.3255 353.35 67.1523 353.715 67.043C354.079 66.9336 354.371 66.8789 354.59 66.8789C355.52 66.8789 356.422 67.6263 357.297 69.1211C358.19 70.6159 358.637 72.1836 358.637 73.8242C358.637 74.4987 358.491 75.0273 358.199 75.4102C357.908 75.7747 357.488 75.957 356.941 75.957C356.504 75.957 356.076 75.7839 355.656 75.4375C355.237 75.0729 354.736 74.4258 354.152 73.4961C353.441 72.3294 352.703 71.5182 351.938 71.0625C351.19 70.5885 350.288 70.3516 349.23 70.3516C348.118 70.3516 347.225 70.6615 346.551 71.2812C345.876 71.901 345.539 72.7122 345.539 73.7148C345.539 74.5716 345.876 75.3372 346.551 76.0117C347.243 76.6862 348.793 77.6159 351.199 78.8008C351.254 78.8372 351.354 78.8919 351.5 78.9648C356.786 81.5716 359.43 84.4154 359.43 87.4961C359.43 90.1393 358.409 92.3542 356.367 94.1406C354.344 95.9089 351.81 96.793 348.766 96.793C348.128 96.793 347.371 96.7292 346.496 96.6016C345.639 96.4922 344.646 96.3281 343.516 96.1094ZM378.871 67.8906C379.345 67.8906 379.664 67.9818 379.828 68.1641C380.01 68.3464 380.102 68.7018 380.102 69.2305V69.9141C380.102 70.4062 380.001 70.7617 379.801 70.9805C379.618 71.1992 379.309 71.3086 378.871 71.3086H372.992C372.81 71.3086 372.664 71.3906 372.555 71.5547C372.445 71.7005 372.391 71.9193 372.391 72.2109V86.375C372.391 88.8177 372.591 90.349 372.992 90.9688C373.411 91.5885 374.177 91.8984 375.289 91.8984C375.891 91.8984 376.656 91.7435 377.586 91.4336C378.534 91.1237 379.19 90.9688 379.555 90.9688C379.974 90.9688 380.32 91.0964 380.594 91.3516C380.867 91.5885 381.004 91.9076 381.004 92.3086C381.004 93.3477 380.193 94.3594 378.57 95.3438C376.966 96.3099 375.143 96.793 373.102 96.793C371.917 96.793 370.85 96.638 369.902 96.3281C368.973 96.0182 368.171 95.5534 367.496 94.9336C366.822 94.3138 366.348 93.4844 366.074 92.4453C365.801 91.388 365.664 89.4375 365.664 86.5938V71.3086H363.039C362.638 71.3086 362.355 71.2357 362.191 71.0898C362.046 70.944 361.973 70.6979 361.973 70.3516V69.668C361.973 69.0482 362.966 67.8906 364.953 66.1953C365.445 65.776 365.837 65.4388 366.129 65.1836C366.384 64.9648 366.749 64.6458 367.223 64.2266C369.191 62.4948 370.54 61.6289 371.27 61.6289C371.652 61.6289 371.953 61.7109 372.172 61.875C372.391 62.0391 372.5 62.2669 372.5 62.5586V67.8906H378.871Z" fill="url(#paint2_linear_222_823)"/>
<defs>
<linearGradient id="paint0_linear_222_823" x1="74.1771" y1="6.20605" x2="74.1771" y2="142.798" gradientUnits="userSpaceOnUse">
<stop stop-color="#DD9D9E"/>
<stop offset="1" stop-color="#86B6F4"/>
</linearGradient>
<linearGradient id="paint1_linear_222_823" x1="104" y1="34.8108" x2="102.473" y2="111.999" gradientUnits="userSpaceOnUse">
<stop stop-color="#86B6F4"/>
<stop offset="0.715657" stop-color="#DD9D9E"/>
</linearGradient>
<linearGradient id="paint2_linear_222_823" x1="172.5" y1="75" x2="336.5" y2="88.5" gradientUnits="userSpaceOnUse">
<stop offset="0.269662" stop-color="#6696D4"/>
<stop offset="1" stop-color="#DD9D9E"/>
</linearGradient>
</defs>
</svg>
