<svg width="93" height="112" viewBox="0 0 93 112" fill="none" xmlns="http://www.w3.org/2000/svg">
<path d="M41.1256 8.11331L36.2042 36.0757C35.9584 37.4724 34.3772 38.1767 33.1745 37.425L28.3986 34.4401C26.9492 33.5342 25.1049 34.7462 25.3613 36.4361L27.178 48.41C27.3339 49.438 26.6762 50.414 25.6648 50.6553L5.75992 55.4054C3.89819 55.8497 3.66395 58.4037 5.41381 59.1793L25.9516 68.2813C26.8247 68.6682 27.3024 69.6184 27.0922 70.55L25.621 77.07C25.2525 78.7033 26.9341 80.0393 28.4418 79.3112L33.5088 76.864C34.6402 76.3176 35.9892 76.9374 36.3116 78.1517L43.2941 104.449C43.8253 106.45 46.6735 106.425 47.169 104.415L53.6151 78.2696C53.9244 77.0151 55.3243 76.3787 56.4729 76.9705L61.6007 79.6121C62.9318 80.2978 64.5166 79.3314 64.5166 77.8341V68.0971C64.5166 67.2894 65.0024 66.561 65.7481 66.2507L87.624 57.1456C89.3815 56.4141 89.2198 53.873 87.3837 53.3702L65.9884 47.5117C65.1193 47.2737 64.5166 46.4838 64.5166 45.5827V33.8774C64.5166 32.2428 62.6622 31.2985 61.3403 32.2599L56.4772 35.7967C55.3698 36.6021 53.7989 36.0816 53.3914 34.7743L45.0047 7.86488C44.3808 5.86312 41.489 6.04832 41.1256 8.11331Z" fill="#F8E4AE"/>
<circle cx="38" cy="51" r="2" fill="#506384"/>
<circle cx="49" cy="51" r="2" fill="#506384"/>
<path d="M35 56C37.9643 58.2639 45.7143 61.4333 53 56" stroke="#506384" stroke-width="3" stroke-linecap="round"/>
</svg>
