<svg width="236" height="236" viewBox="0 0 236 236" fill="none" xmlns="http://www.w3.org/2000/svg">
<path d="M83.2624 41.1864C83.8933 39.7676 84.098 38.196 83.8517 36.6629C83.6054 35.1299 82.9186 33.7015 81.8749 32.5518C80.8313 31.4021 79.4759 30.5807 77.9737 30.1876C76.4716 29.7945 74.8875 29.8467 73.4145 30.3377C61.7893 34.2128 52.5179 41.8429 44.0151 50.3457C35.4675 58.8298 28.6835 68.9217 24.054 80.0397C19.4245 91.1577 17.041 103.082 17.041 115.125C17.041 127.169 19.4245 139.093 24.054 150.211C28.6835 161.329 35.4675 171.421 44.0151 179.905C80.1879 216.086 136.168 214.02 171.925 178.264C180.428 169.761 188.05 160.489 191.925 148.856C192.4 147.426 192.462 145.891 192.104 144.427C191.746 142.963 190.981 141.63 189.899 140.581C188.817 139.532 187.46 138.81 185.986 138.498C184.512 138.186 182.979 138.296 181.565 138.816C152.822 149.401 120.116 144.693 98.0341 122.603C75.8805 100.45 71.3809 67.9117 83.2624 41.1864Z" fill="#FFDE82"/>
<path d="M134.696 30.0371L127.787 69.2938C127.541 70.6905 125.96 71.3948 124.757 70.6431L116.801 65.6704C115.351 64.7645 113.507 65.9765 113.763 67.6664L116.375 84.8808C116.531 85.9088 115.873 86.8848 114.862 87.1262L87.006 93.7737C85.1443 94.218 84.91 96.772 86.6599 97.5476L115.149 110.173C116.022 110.56 116.5 111.511 116.289 112.442L114.023 122.486C113.655 124.119 115.336 125.455 116.844 124.727L125.091 120.744C126.223 120.198 127.572 120.817 127.894 122.032L137.66 158.81C138.191 160.811 141.039 160.786 141.534 158.776L150.565 122.15C150.874 120.895 152.274 120.259 153.422 120.85L161.532 125.028C162.863 125.714 164.448 124.747 164.448 123.25V109.357C164.448 108.549 164.934 107.821 165.679 107.51L195.805 94.9718C197.562 94.2403 197.4 91.6991 195.564 91.1964L165.92 83.079C165.05 82.841 164.448 82.0511 164.448 81.15V64.4752C164.448 62.8407 162.593 61.8964 161.271 62.8578L153.427 68.5631C152.319 69.3684 150.748 68.8479 150.341 67.5407L138.575 29.7887C137.951 27.7869 135.059 27.9721 134.696 30.0371Z" fill="#F8E4AE"/>
<circle cx="131.541" cy="85.1144" r="2.57924" fill="#506384"/>
<circle cx="145.727" cy="85.1144" r="2.57924" fill="#506384"/>
<path d="M127.672 91.5625C131.495 94.482 141.489 98.5694 150.885 91.5625" stroke="#506384" stroke-width="3" stroke-linecap="round"/>
<circle cx="70.6682" cy="141.755" r="2.47679" fill="#506384"/>
<circle cx="82.6682" cy="141.755" r="2.47679" fill="#506384"/>
<path d="M63.1914 149.278C67.8025 152.297 79.8581 156.523 91.1914 149.278" stroke="#506384" stroke-width="4" stroke-linecap="round"/>
</svg>
