<svg width="224" height="227" viewBox="0 0 224 227" fill="none" xmlns="http://www.w3.org/2000/svg">
<path d="M28.043 188.188C26.8398 184.76 25.8464 182.254 25.0625 180.668C24.2969 179.082 23.5768 178.025 22.9023 177.496C22.7565 177.387 22.2096 177.159 21.2617 176.812C20.332 176.448 19.8672 175.91 19.8672 175.199C19.8672 174.415 20.3047 173.887 21.1797 173.613C22.0729 173.322 24.3242 173.176 27.9336 173.176C31.5247 173.176 33.7578 173.322 34.6328 173.613C35.5078 173.887 35.9453 174.415 35.9453 175.199C35.9453 175.947 35.2344 176.585 33.8125 177.113C33.7214 177.15 33.6393 177.186 33.5664 177.223C33.1289 177.368 32.8008 177.578 32.582 177.852C32.3633 178.125 32.2539 178.471 32.2539 178.891C32.2539 179.583 32.7005 181.224 33.5938 183.812C34.5052 186.383 36.0911 190.548 38.3516 196.309C39.2266 198.533 39.8828 200.055 40.3203 200.875C40.7578 201.677 41.1133 202.078 41.3867 202.078C41.6602 202.078 41.9792 201.759 42.3438 201.121C42.7266 200.483 43.3555 199.098 44.2305 196.965L44.7227 195.762C48.6602 186.283 50.6289 180.96 50.6289 179.793C50.6289 179.191 50.4831 178.69 50.1914 178.289C49.918 177.888 49.4622 177.551 48.8242 177.277C48.6784 177.204 48.4688 177.104 48.1953 176.977C47.0833 176.521 46.5273 175.928 46.5273 175.199C46.5273 174.415 46.901 173.887 47.6484 173.613C48.4141 173.322 50.3555 173.176 53.4727 173.176C56.4622 173.176 58.349 173.322 59.1328 173.613C59.9167 173.887 60.3086 174.415 60.3086 175.199C60.3086 175.928 59.7526 176.53 58.6406 177.004C58.0938 177.241 57.6927 177.441 57.4375 177.605C56.125 178.462 54.2109 182.135 51.6953 188.625C50.7109 191.159 49.918 193.155 49.3164 194.613L43.9023 208.012C43.6471 208.613 43.3099 209.452 42.8906 210.527C41.7422 213.553 40.7487 215.066 39.9102 215.066C38.944 215.066 37.0573 211.402 34.25 204.074C32.6094 199.827 31.2513 196.382 30.1758 193.738L24.2969 208.285C24.0964 208.796 23.8138 209.516 23.4492 210.445C22.2643 213.526 21.2982 215.066 20.5508 215.066C19.8763 215.066 19.2018 214.264 18.5273 212.66C18.3633 212.277 18.2357 211.986 18.1445 211.785C15.7201 206.517 12.6484 198.988 8.92969 189.199C7.76302 186.118 6.89714 183.84 6.33203 182.363C5.69401 180.814 5.12891 179.665 4.63672 178.918C4.14453 178.152 3.59766 177.596 2.99609 177.25C2.83203 177.159 2.55859 177.059 2.17578 176.949C0.972656 176.566 0.371094 175.983 0.371094 175.199C0.371094 174.415 0.808594 173.887 1.68359 173.613C2.57682 173.322 4.82812 173.176 8.4375 173.176C12.0286 173.176 14.2617 173.322 15.1367 173.613C16.0117 173.887 16.4492 174.415 16.4492 175.199C16.4492 175.947 15.7109 176.594 14.2344 177.141L14.0703 177.195C13.5781 177.378 13.2227 177.605 13.0039 177.879C12.8034 178.134 12.7031 178.471 12.7031 178.891C12.7031 179.529 13.0951 180.978 13.8789 183.238C14.6628 185.48 16.2669 189.701 18.6914 195.898C19.7669 198.651 20.487 200.374 20.8516 201.066C21.2344 201.741 21.5807 202.078 21.8906 202.078C22.401 202.078 23.7135 199.335 25.8281 193.848C26.7396 191.496 27.4779 189.609 28.043 188.188ZM64.1094 199.562H63.7266C62.6693 199.562 62.0404 199.645 61.8398 199.809C61.6393 199.973 61.5391 200.41 61.5391 201.121C61.5391 203.491 62.3867 205.533 64.082 207.246C65.7773 208.941 67.8372 209.789 70.2617 209.789C71.3008 209.789 72.3034 209.634 73.2695 209.324C74.2357 209.014 75.1745 208.54 76.0859 207.902C76.3411 207.72 76.6875 207.456 77.125 207.109C78.0729 206.326 78.8112 205.934 79.3398 205.934C79.7591 205.934 80.1055 206.07 80.3789 206.344C80.6523 206.617 80.7891 206.945 80.7891 207.328C80.7891 207.784 80.5521 208.349 80.0781 209.023C79.6042 209.68 78.9661 210.327 78.1641 210.965C76.5052 212.332 74.9102 213.316 73.3789 213.918C71.8477 214.501 70.1797 214.793 68.375 214.793C64.3281 214.793 60.9466 213.417 58.2305 210.664C55.5326 207.893 54.1836 204.466 54.1836 200.383C54.1836 195.935 55.569 192.28 58.3398 189.418C61.1289 186.538 64.6927 185.098 69.0312 185.098C72.6953 185.098 75.5938 186.146 77.7266 188.242C79.8776 190.32 80.9531 193.137 80.9531 196.691C80.9531 197.858 80.7799 198.633 80.4336 199.016C80.0872 199.38 79.2031 199.562 77.7812 199.562H64.1094ZM63.5352 196.309H72.7773C73.5065 196.309 73.9896 196.236 74.2266 196.09C74.4635 195.944 74.582 195.661 74.582 195.242C74.582 193.401 73.9622 191.861 72.7227 190.621C71.5013 189.363 69.9518 188.734 68.0742 188.734C66.2695 188.734 64.7747 189.363 63.5898 190.621C62.4049 191.861 61.8125 193.401 61.8125 195.242C61.8125 195.661 61.9219 195.944 62.1406 196.09C62.3594 196.236 62.8242 196.309 63.5352 196.309ZM87.3516 192.207V190.02C87.3516 185.262 87.2695 182.19 87.1055 180.805C86.9414 179.419 86.6589 178.617 86.2578 178.398C85.8385 178.18 85.2552 177.97 84.5078 177.77C83.3047 177.441 82.7031 176.94 82.7031 176.266C82.7031 175.792 82.8854 175.4 83.25 175.09C83.6328 174.762 84.4987 174.37 85.8477 173.914C87.1602 173.458 88.4271 173.103 89.6484 172.848C90.888 172.574 91.8815 172.438 92.6289 172.438C93.194 172.438 93.5951 172.62 93.832 172.984C94.069 173.331 94.1875 173.951 94.1875 174.844C94.1875 175.099 94.1693 175.828 94.1328 177.031C93.9141 183.794 93.8047 190.63 93.8047 197.539C93.8047 202.589 93.8594 205.815 93.9688 207.219C94.0964 208.604 94.3151 209.479 94.625 209.844C94.8073 210.044 95.3359 210.318 96.2109 210.664C97.1042 211.01 97.5508 211.548 97.5508 212.277C97.5508 213.007 97.0768 213.526 96.1289 213.836C95.181 214.128 93.4674 214.273 90.9883 214.273C88.0898 214.273 86.1758 214.118 85.2461 213.809C84.3346 213.499 83.8789 212.924 83.8789 212.086C83.8789 211.503 84.2708 211.038 85.0547 210.691C85.8385 210.345 86.3216 210.081 86.5039 209.898C86.832 209.589 87.0599 208.859 87.1875 207.711C87.3333 206.544 87.4062 204.667 87.4062 202.078C87.4062 201.312 87.3971 199.836 87.3789 197.648C87.3607 195.461 87.3516 193.647 87.3516 192.207ZM103.32 192.207V190.02C103.32 185.262 103.238 182.19 103.074 180.805C102.91 179.419 102.628 178.617 102.227 178.398C101.807 178.18 101.224 177.97 100.477 177.77C99.2734 177.441 98.6719 176.94 98.6719 176.266C98.6719 175.792 98.8542 175.4 99.2188 175.09C99.6016 174.762 100.467 174.37 101.816 173.914C103.129 173.458 104.396 173.103 105.617 172.848C106.857 172.574 107.85 172.438 108.598 172.438C109.163 172.438 109.564 172.62 109.801 172.984C110.038 173.331 110.156 173.951 110.156 174.844C110.156 175.099 110.138 175.828 110.102 177.031C109.883 183.794 109.773 190.63 109.773 197.539C109.773 202.589 109.828 205.815 109.938 207.219C110.065 208.604 110.284 209.479 110.594 209.844C110.776 210.044 111.305 210.318 112.18 210.664C113.073 211.01 113.52 211.548 113.52 212.277C113.52 213.007 113.046 213.526 112.098 213.836C111.15 214.128 109.436 214.273 106.957 214.273C104.059 214.273 102.145 214.118 101.215 213.809C100.303 213.499 99.8477 212.924 99.8477 212.086C99.8477 211.503 100.24 211.038 101.023 210.691C101.807 210.345 102.29 210.081 102.473 209.898C102.801 209.589 103.029 208.859 103.156 207.711C103.302 206.544 103.375 204.667 103.375 202.078C103.375 201.312 103.366 199.836 103.348 197.648C103.329 195.461 103.32 193.647 103.32 192.207ZM127.328 188.543C127.474 188.415 127.674 188.233 127.93 187.996C129.99 186.064 132.223 185.098 134.629 185.098C135.996 185.098 137.309 185.398 138.566 186C139.842 186.583 140.918 187.385 141.793 188.406C142.668 189.445 143.288 190.685 143.652 192.125C144.017 193.565 144.199 195.816 144.199 198.879V202.734C144.199 203.208 144.19 203.828 144.172 204.594C144.154 205.359 144.145 205.897 144.145 206.207C144.145 207.556 144.236 208.513 144.418 209.078C144.618 209.625 144.956 210.035 145.43 210.309C145.612 210.4 145.858 210.5 146.168 210.609C147.098 210.956 147.562 211.448 147.562 212.086C147.562 212.906 147.125 213.471 146.25 213.781C145.375 214.073 143.479 214.219 140.562 214.219C137.901 214.219 136.115 214.082 135.203 213.809C134.31 213.517 133.863 213.007 133.863 212.277C133.863 211.548 134.337 211.01 135.285 210.664C135.777 210.482 136.133 210.327 136.352 210.199C136.789 209.962 137.099 209.434 137.281 208.613C137.464 207.775 137.555 206.326 137.555 204.266C137.555 198.214 137.163 194.422 136.379 192.891C135.613 191.359 134.228 190.594 132.223 190.594C131.202 190.594 130.227 190.904 129.297 191.523C128.385 192.125 127.684 192.936 127.191 193.957C126.772 194.777 126.48 195.926 126.316 197.402C126.152 198.879 126.07 201.504 126.07 205.277C126.07 207.118 126.143 208.349 126.289 208.969C126.453 209.57 126.736 209.98 127.137 210.199C127.374 210.327 127.729 210.482 128.203 210.664C129.169 211.01 129.652 211.548 129.652 212.277C129.652 213.007 129.188 213.526 128.258 213.836C127.328 214.128 125.624 214.273 123.145 214.273C120.246 214.273 118.323 214.118 117.375 213.809C116.445 213.499 115.98 212.924 115.98 212.086C115.98 211.448 116.445 210.956 117.375 210.609C117.721 210.482 117.967 210.382 118.113 210.309C118.605 210.035 118.952 209.579 119.152 208.941C119.353 208.303 119.453 207.264 119.453 205.824C119.453 205.478 119.444 204.84 119.426 203.91C119.408 202.98 119.398 202.215 119.398 201.613V198.66C119.398 195.671 119.326 193.72 119.18 192.809C119.034 191.897 118.77 191.341 118.387 191.141C118.095 190.995 117.648 190.831 117.047 190.648C115.898 190.284 115.324 189.783 115.324 189.145C115.324 188.725 115.497 188.352 115.844 188.023C116.208 187.677 116.801 187.34 117.621 187.012C119.025 186.465 120.392 186.027 121.723 185.699C123.053 185.371 124.038 185.207 124.676 185.207C125.204 185.207 125.587 185.353 125.824 185.645C126.061 185.918 126.18 186.374 126.18 187.012V188.898C126.18 189.044 126.189 189.135 126.207 189.172C126.243 189.208 126.307 189.236 126.398 189.254C126.435 189.254 126.48 189.245 126.535 189.227C126.608 189.19 126.654 189.163 126.672 189.145L127.328 188.543ZM160.086 199.562H159.703C158.646 199.562 158.017 199.645 157.816 199.809C157.616 199.973 157.516 200.41 157.516 201.121C157.516 203.491 158.363 205.533 160.059 207.246C161.754 208.941 163.814 209.789 166.238 209.789C167.277 209.789 168.28 209.634 169.246 209.324C170.212 209.014 171.151 208.54 172.062 207.902C172.318 207.72 172.664 207.456 173.102 207.109C174.049 206.326 174.788 205.934 175.316 205.934C175.736 205.934 176.082 206.07 176.355 206.344C176.629 206.617 176.766 206.945 176.766 207.328C176.766 207.784 176.529 208.349 176.055 209.023C175.581 209.68 174.943 210.327 174.141 210.965C172.482 212.332 170.887 213.316 169.355 213.918C167.824 214.501 166.156 214.793 164.352 214.793C160.305 214.793 156.923 213.417 154.207 210.664C151.509 207.893 150.16 204.466 150.16 200.383C150.16 195.935 151.546 192.28 154.316 189.418C157.105 186.538 160.669 185.098 165.008 185.098C168.672 185.098 171.57 186.146 173.703 188.242C175.854 190.32 176.93 193.137 176.93 196.691C176.93 197.858 176.757 198.633 176.41 199.016C176.064 199.38 175.18 199.562 173.758 199.562H160.086ZM159.512 196.309H168.754C169.483 196.309 169.966 196.236 170.203 196.09C170.44 195.944 170.559 195.661 170.559 195.242C170.559 193.401 169.939 191.861 168.699 190.621C167.478 189.363 165.928 188.734 164.051 188.734C162.246 188.734 160.751 189.363 159.566 190.621C158.382 191.861 157.789 193.401 157.789 195.242C157.789 195.661 157.898 195.944 158.117 196.09C158.336 196.236 158.801 196.309 159.512 196.309ZM185.516 214.109C185.206 214.346 184.905 214.52 184.613 214.629C184.34 214.738 184.057 214.793 183.766 214.793C183.583 214.793 183.392 214.747 183.191 214.656C183.009 214.583 182.809 214.456 182.59 214.273C181.97 213.745 181.387 212.715 180.84 211.184C180.293 209.652 180.02 208.185 180.02 206.781C180.02 206.18 180.184 205.678 180.512 205.277C180.84 204.858 181.241 204.648 181.715 204.648C182.59 204.648 183.474 205.414 184.367 206.945C184.805 207.711 185.169 208.285 185.461 208.668C186.026 209.415 186.801 210.008 187.785 210.445C188.77 210.883 189.827 211.102 190.957 211.102C192.215 211.102 193.208 210.792 193.938 210.172C194.667 209.534 195.031 208.686 195.031 207.629C195.031 206.025 193.436 204.457 190.246 202.926C189.553 202.598 189.007 202.333 188.605 202.133C185.634 200.656 183.629 199.298 182.59 198.059C181.551 196.819 181.031 195.297 181.031 193.492C181.031 191.013 181.888 188.999 183.602 187.449C185.315 185.882 187.557 185.098 190.328 185.098C191.003 185.098 191.677 185.134 192.352 185.207C193.026 185.28 193.701 185.398 194.375 185.562C194.904 185.326 195.35 185.152 195.715 185.043C196.079 184.934 196.371 184.879 196.59 184.879C197.52 184.879 198.422 185.626 199.297 187.121C200.19 188.616 200.637 190.184 200.637 191.824C200.637 192.499 200.491 193.027 200.199 193.41C199.908 193.775 199.488 193.957 198.941 193.957C198.504 193.957 198.076 193.784 197.656 193.438C197.237 193.073 196.736 192.426 196.152 191.496C195.441 190.329 194.703 189.518 193.938 189.062C193.19 188.589 192.288 188.352 191.23 188.352C190.118 188.352 189.225 188.661 188.551 189.281C187.876 189.901 187.539 190.712 187.539 191.715C187.539 192.572 187.876 193.337 188.551 194.012C189.243 194.686 190.793 195.616 193.199 196.801C193.254 196.837 193.354 196.892 193.5 196.965C198.786 199.572 201.43 202.415 201.43 205.496C201.43 208.139 200.409 210.354 198.367 212.141C196.344 213.909 193.81 214.793 190.766 214.793C190.128 214.793 189.371 214.729 188.496 214.602C187.639 214.492 186.646 214.328 185.516 214.109ZM220.871 185.891C221.345 185.891 221.664 185.982 221.828 186.164C222.01 186.346 222.102 186.702 222.102 187.23V187.914C222.102 188.406 222.001 188.762 221.801 188.98C221.618 189.199 221.309 189.309 220.871 189.309H214.992C214.81 189.309 214.664 189.391 214.555 189.555C214.445 189.701 214.391 189.919 214.391 190.211V204.375C214.391 206.818 214.591 208.349 214.992 208.969C215.411 209.589 216.177 209.898 217.289 209.898C217.891 209.898 218.656 209.743 219.586 209.434C220.534 209.124 221.19 208.969 221.555 208.969C221.974 208.969 222.32 209.096 222.594 209.352C222.867 209.589 223.004 209.908 223.004 210.309C223.004 211.348 222.193 212.359 220.57 213.344C218.966 214.31 217.143 214.793 215.102 214.793C213.917 214.793 212.85 214.638 211.902 214.328C210.973 214.018 210.171 213.553 209.496 212.934C208.822 212.314 208.348 211.484 208.074 210.445C207.801 209.388 207.664 207.438 207.664 204.594V189.309H205.039C204.638 189.309 204.355 189.236 204.191 189.09C204.046 188.944 203.973 188.698 203.973 188.352V187.668C203.973 187.048 204.966 185.891 206.953 184.195C207.445 183.776 207.837 183.439 208.129 183.184C208.384 182.965 208.749 182.646 209.223 182.227C211.191 180.495 212.54 179.629 213.27 179.629C213.652 179.629 213.953 179.711 214.172 179.875C214.391 180.039 214.5 180.267 214.5 180.559V185.891H220.871Z" fill="url(#paint0_linear_39_206)"/>
<path d="M95.5635 14.9373C96.0527 13.8371 96.2115 12.6185 96.0205 11.4297C95.8294 10.2409 95.2969 9.13333 94.4876 8.24183C93.6784 7.35033 92.6273 6.71339 91.4625 6.40856C90.2977 6.10373 89.0694 6.14419 87.9272 6.52499C78.9127 9.52982 71.7235 15.4464 65.1302 22.0396C58.5022 28.6184 53.2417 36.4439 49.6519 45.065C46.062 53.6862 44.2139 62.9325 44.2139 72.2712C44.2139 81.6099 46.062 90.8563 49.6519 99.4774C53.2417 108.099 58.5022 115.924 65.1302 122.503C93.1795 150.558 136.588 148.957 164.315 121.23C170.908 114.637 176.818 107.448 179.823 98.4269C180.192 97.318 180.24 96.1275 179.962 94.9924C179.684 93.8573 179.091 92.8237 178.252 92.0104C177.413 91.1972 176.361 90.6373 175.218 90.3951C174.075 90.153 172.886 90.2385 171.789 90.6417C149.501 98.8491 124.14 95.1986 107.018 78.0698C89.8394 60.8914 86.3503 35.6607 95.5635 14.9373Z" fill="url(#paint1_linear_39_206)"/>
<path d="M135.126 8.11331L130.204 36.0757C129.958 37.4724 128.377 38.1767 127.174 37.425L122.399 34.4401C120.949 33.5342 119.105 34.7462 119.361 36.4361L121.178 48.41C121.334 49.438 120.676 50.414 119.665 50.6553L99.7599 55.4054C97.8982 55.8497 97.6639 58.4037 99.4138 59.1793L119.952 68.2813C120.825 68.6682 121.302 69.6184 121.092 70.55L119.621 77.07C119.252 78.7033 120.934 80.0393 122.442 79.3112L127.509 76.864C128.64 76.3176 129.989 76.9374 130.312 78.1517L137.294 104.449C137.825 106.45 140.673 106.425 141.169 104.415L147.615 78.2696C147.924 77.0151 149.324 76.3787 150.473 76.9705L155.601 79.6121C156.932 80.2978 158.517 79.3314 158.517 77.8341V68.0971C158.517 67.2894 159.002 66.561 159.748 66.2507L181.624 57.1456C183.382 56.4141 183.22 53.873 181.384 53.3702L159.988 47.5117C159.119 47.2737 158.517 46.4838 158.517 45.5827V33.8774C158.517 32.2428 156.662 31.2985 155.34 32.2599L150.477 35.7967C149.37 36.6021 147.799 36.0816 147.391 34.7743L139.005 7.86488C138.381 5.86312 135.489 6.04832 135.126 8.11331Z" fill="url(#paint2_linear_39_206)"/>
<circle cx="133" cy="49" r="2" fill="#506384"/>
<circle cx="144" cy="49" r="2" fill="#506384"/>
<path d="M130 54C132.964 56.2639 140.714 59.4333 148 54" stroke="#506384" stroke-width="3" stroke-linecap="round"/>
<circle cx="87.4768" cy="93.4768" r="2.47679" fill="#506384"/>
<circle cx="99.4768" cy="93.4768" r="2.47679" fill="#506384"/>
<path d="M80 101C84.6111 104.018 96.6667 108.244 108 101" stroke="#506384" stroke-width="4" stroke-linecap="round"/>
<defs>
<linearGradient id="paint0_linear_39_206" x1="14.5" y1="193" x2="178.5" y2="206.5" gradientUnits="userSpaceOnUse">
<stop offset="0.269662" stop-color="#6696D4"/>
<stop offset="1" stop-color="#DD9D9E"/>
</linearGradient>
<linearGradient id="paint1_linear_39_206" x1="112.177" y1="6.2063" x2="112.177" y2="142.799" gradientUnits="userSpaceOnUse">
<stop stop-color="#DD9D9E"/>
<stop offset="1" stop-color="#86B6F4"/>
</linearGradient>
<linearGradient id="paint2_linear_39_206" x1="142" y1="34.8108" x2="140.473" y2="111.999" gradientUnits="userSpaceOnUse">
<stop stop-color="#86B6F4"/>
<stop offset="0.715657" stop-color="#DD9D9E"/>
</linearGradient>
</defs>
</svg>
